<svg xmlns="http://www.w3.org/2000/svg" xmlns:xlink="http://www.w3.org/1999/xlink" version="1.1" width="375" height="375" viewBox="0 0 375 375">
<defs>
<clipPath id="clip_0">
<path transform="matrix(.24,0,0,.24,0,0)" d="M0 0H1562.5V1593.75H0Z" fill-rule="evenodd"/>
</clipPath>
<clipPath id="clip_1">
<path transform="matrix(.24,0,0,.24,0,0)" d="M0 0H1562.5V1562.5H0Z" fill-rule="evenodd"/>
</clipPath>
<clipPath id="clip_2">
<path transform="matrix(.24,0,0,.24,0,0)" d="M0 0H1562.5V1562.5H0Z" fill-rule="evenodd"/>
</clipPath>
<clipPath id="clip_3">
<path transform="matrix(.24,0,0,.24,0,0)" d="M446.6652 615.59146H1115.4152V899.96646H446.6652Z" fill-rule="evenodd"/>
</clipPath>
<clipPath id="clip_4">
<path transform="matrix(.24,0,0,.24,0,0)" d="M0 0H1562.5V1593.75H0Z"/>
</clipPath>
<clipPath id="clip_5">
<path transform="matrix(.24,0,0,.24,0,0)" d="M0 0H1562.5V1562.5H0Z"/>
</clipPath>
<clipPath id="clip_6">
<path transform="matrix(.24,0,0,.24,0,0)" d="M0 0H1562.5V1562.5H0Z"/>
</clipPath>
<clipPath id="clip_7">
<path transform="matrix(.24,0,0,.24,0,0)" d="M506.9736 515.84127 759.12588 422.85847 867.24539 716.0588 615.09317 809.04159 506.9736 515.84127Z"/>
</clipPath>
<clipPath id="clip_8">
<path transform="matrix(.24,0,0,.24,0,0)" d="M506.9736 515.84127 759.12588 422.85847 867.24539 716.0588 615.09317 809.04159 506.9736 515.84127Z"/>
</clipPath>
<clipPath id="clip_9">
<path transform="matrix(.24,0,0,.24,0,0)" d="M0 0H1562.5V1562.5H0Z" fill-rule="evenodd"/>
</clipPath>
</defs>
<g clip-path="url(#clip_0)">
<path transform="matrix(.75,0,0,.75,0,0)" d="M0 0H500V510H0Z" fill="#ffffff"/>
</g>
<g clip-path="url(#clip_1)">
<path transform="matrix(.75,0,0,.75,0,0)" d="M0 0H500V500H0Z" fill="#ffffff"/>
</g>
<g clip-path="url(#clip_2)">
<path transform="matrix(.75,0,0,.75,0,0)" d="M0 0H500V500H0Z" fill="#ffffff"/>
</g>
<g clip-path="url(#clip_3)">
<path transform="matrix(1.1775494,0,0,1.174205,107.199649,148.04984)" d="M92.1 27.6 91.1 27.4C91.2 26.9 91.4 26.4 91.6 25.9 91.7 25.699999 91.9 25.3 92.2 25.199999 92.6 24.999999 93 24.999999 93.399997 25.099999 93.59999 25.099999 93.7 25.199999 93.899997 25.099999 94.09999 25.099999 94.2 24.8 94.399997 24.399998 94.49999 24.199997 94.59999 24.099999 94.7 23.899998 94.899997 23.599999 95.1 23.399998 95.299999 23.199997 95.6 22.799998 95.899997 22.499997 95.99999 22.199997L96.09999 20.599997 96.69999 21.699997C96.79999 21.599997 96.99999 21.499997 97.09999 21.399998 97.19999 21.299998 97.49999 21.099999 97.49999 21.099999 97.49999 21.099999 97.49999 20.999999 97.49999 20.999999V17.499999L98.19999 19.799998C98.29999 19.699997 98.39999 19.599997 98.39999 19.599997L98.79999 19.399996 99.09999 18.299996 99.899997 19.699995C99.899997 19.599995 99.899997 19.499995 99.899997 19.399996L99.799999 18.399996 100.899997 18.999997C100.99999 18.899996 100.99999 18.799996 101.09999 18.699997L101.899997 19.299998C101.799999 19.399998 101.7 19.599997 101.7 19.799998L101.6 20.599997 100.799999 20.199997C100.7 20.499997 100.6 20.899998 100.299999 21.099997L99.899997 21.699997 99.399997 20.899998 99.09999 21.899998 98.69999 21.299998V21.399998C98.59999 21.499999 98.49999 21.599999 98.29999 21.699997 98.09999 21.999997 97.79999 22.199997 97.499988 22.399998 97.29999 22.499999 96.999988 22.699997 96.999988 22.799998L97.39999 25.399998 96.39999 23.599999C96.19999 23.8 96.09998 23.999999 95.89999 24.199999 95.69999 24.4 95.499988 24.599999 95.39999 24.8 95.29999 24.9 95.19999 25 95.19999 25.199999 94.99999 25.599999 94.69999 26.199999 93.99999 26.3 93.69999 26.4 93.399997 26.3 93.09999 26.3 92.899997 26.3 92.69999 26.199999 92.69999 26.3 92.69999 26.3 92.59999 26.4 92.49999 26.599999 92.3 26.8 92.2 27.2 92.1 27.6Z" fill="#8b0dd8"/>
<path transform="matrix(1.1775494,0,0,1.174205,107.199649,148.04984)" d="M136.3 57.6H60.7L59.9 56.199998 0 57 8.7 50.1 8.9 47.8 18.3 41.8H10.299999L10.699999 39.399999H12.799999L12.299999 36.699998H13.699999L12.199999 35.499998 31.199999 24.599997H31.3C32.5 24.599997 61.1 25.199997 67.7 38.699998 69.6 33.1 77.5 10.799997 86.399997 2.699997L86.49999 2.599997 98.9 0 86.2 20.5 97.7 13 115.899997 16.8 90.6 33.2 109.6 35.600004 126.5 44.800004 118.3 45.500005 129 51.300004 127.5 52.100004 130.1 53.2 131.5 54.600004 136.3 57.6ZM61.2 56.6H133L131 55.199998 129.6 53.899999 125.3 52.199998 127 51.199998 115 44.7 123.2 44 109.299999 36.4 87.799999 33.7 113.399997 17.2 97.99999 13.900001 83.09999 23.5 96.8 1.5 87.200008 3.5C77.50001 12.5 68.600009 39.9 68.5 40.2L68 41.6 67.5 40.199998C62.5 26.599997 33.8 25.599997 31.599999 25.499997L14.099998 35.499998 16.699999 37.499998H13.599998L14.099998 40.199998H11.699999L11.599998 40.6H21.8L9.9 48.3 9.7 50.5 2.8999997 55.9 60.5 55.2 61.2 56.6Z" fill="#8b0dd8"/>
<path transform="matrix(1.1775494,0,0,1.174205,107.199649,148.04984)" d="M13.7 50.1C28.8 46.5 46.4 45.3 60.9 51.5 59 51 57.100004 50.3 55.100004 49.9 41.6 46.9 27.4 48.1 13.7 50.1Z" fill="#8b0dd8"/>
<path transform="matrix(1.1775494,0,0,1.174205,107.199649,148.04984)" d="M68 40.1C67.7 43.8 67.2 47.8 68.4 51.3H67.8C72.3 40 77.700008 29.099999 84.600009 19.099999 86.90001 15.799998 89.40001 12.599998 92.3 9.699999 89.700008 12.799999 87.3 16.099999 85.100009 19.399998 81.90001 24.399998 78.8 29.899998 76.100009 35.199998 73.200008 40.799997 70.50001 46.499998 68.00001 52.299997 66.5 48.4 67.4 44.1 68 40.1Z" fill="#8b0dd8"/>
<path transform="matrix(1.1775494,0,0,1.174205,107.199649,148.04984)" d="M15.1 38.7C29.8 37.5 45.5 38.7 58.699998 45.7 56.899999 45 55.299997 44.3 53.499998 43.8 41.1 39.8 28 38.8 15.1 38.7Z" fill="#8b0dd8"/>
<path transform="matrix(1.1775494,0,0,1.174205,107.199649,148.04984)" d="M15.3 37.1C18.2 36.6 21.2 36.399999 24.2 36.6 27.1 36.8 30.2 37.1 32.9 38.6 27.1 37.2 21.2 37.7 15.3 37.1Z" fill="#8b0dd8"/>
<path transform="matrix(1.1775494,0,0,1.174205,107.199649,148.04984)" d="M20.1 41.2C24.1 40.600004 28.2 40.5 32.3 40.600004 36.3 40.9 40.699998 41.100004 44.1 43.4L43.399999 43.100004C39.899999 41.800004 35.999998 41.800004 32.299997 41.600004 28.2 41.5 24.1 41.4 20.1 41.2Z" fill="#8b0dd8"/>
<path transform="matrix(1.1775494,0,0,1.174205,107.199649,148.04984)" d="M18 45.8C31.9 42.5 48.7 41.5 61.5 48.899999 63.3 49.999998 65 51.399999 66.5 52.899999 53.6 42.1 33.7 43.5 18 45.8Z" fill="#8b0dd8"/>
<path transform="matrix(1.1775494,0,0,1.174205,107.199649,148.04984)" d="M20.1 52.8C26.5 52.6 33.3 52.7 39.7 52.8L49.5 53C52.7 52.9 56.1 53.4 59.3 52.8 56.2 53.8 52.8 53.6 49.5 53.8 39.7 54 29.9 53.7 20.1 52.8Z" fill="#8b0dd8"/>
<path transform="matrix(1.1775494,0,0,1.174205,107.199649,148.04984)" d="M69.9 51.5C77.5 39 89.5 28.9 103.5 24.4 101.9 25.199999 100.2 25.9 98.6 26.8 87.2 32.6 77.5 41.3 69.9 51.5 69.9 51.4 69.9 51.4 69.9 51.5Z" fill="#8b0dd8"/>
<path transform="matrix(1.1775494,0,0,1.174205,107.199649,148.04984)" d="M84.7 22.1C82.399997 26.3 79.799999 30.7 77.5 34.9 75.8 38.100004 74 41.300004 72.7 44.7 72.299999 45.8 71.899997 47 72.1 48.2 70.7 42 80.7 27.3 84.7 22.1Z" fill="#8b0dd8"/>
<path transform="matrix(1.1775494,0,0,1.174205,107.199649,148.04984)" d="M69.9 53.4C76.6 41.100004 98.600009 42 110.600009 43.9 112.700008 44.2 114.700008 44.7 116.8 45.100004 112.600009 44.600004 108.5 44.100004 104.4 43.9 93.5 43.4 76.5 43.5 69.9 53.4Z" fill="#8b0dd8"/>
<path transform="matrix(1.1775494,0,0,1.174205,107.199649,148.04984)" d="M72.8 52.8C78.3 47 87 45.8 94.700008 45.6 104.8 45.6 114.8 48 124.200008 51.399999 115.600009 49.199998 106.90001 47.1 98 46.699998 89.8 46.3 79.3 47.1 72.8 52.8Z" fill="#8b0dd8"/>
<path transform="matrix(1.1775494,0,0,1.174205,107.199649,148.04984)" d="M71.7 55.5C79.299999 45.3 104.5 48.1 115.799999 50.1 117.899997 50.5 120.1 50.899999 122.2 51.399999 117.899997 50.899999 113.5 50.199998 109.2 49.899999 99.4 49 78.5 47.5 71.7 55.5Z" fill="#8b0dd8"/>
<path transform="matrix(1.1775494,0,0,1.174205,107.199649,148.04984)" d="M74.4 55.5C77.8 53 82 51.8 86.1 51 95.2 49.5 104.8 50.7 113.6 53 118 53.5 122.6 54.5 126.9 53.4 125.9 53.9 124.700008 54.100004 123.6 54.2 120.2 54.5 116.799999 54.2 113.4 53.8 110.1 53.1 106.8 52.399999 103.5 52 93.9 50.9 83.2 50.6 74.4 55.5Z" fill="#8b0dd8"/>
<path transform="matrix(1.1775494,0,0,1.174205,107.199649,148.04984)" d="M71.3 57.5C67.4 54 63.800004 57.3 63.700006 57.5L63 56.8C63 56.8 67.4 52.7 72 56.8L71.3 57.5Z" fill="#8b0dd8"/>
<path transform="matrix(1.1775494,0,0,1.174205,107.199649,148.04984)" d="M63 46.5C62 46 61.3 45.2 61.1 44.2 60.399999 44.3 59.6 43.7 59.3 43.100004 59 42.7 58.5 42.4 58.399999 42.500005L58.1 43.500005 56.699998 41.400007 55.499998 41.600008 55.399999 41.100008C55.3 40.800008 55.199998 40.600008 55.1 40.300008 54.399999 40.70001 53.399999 40.600008 52.699998 40.400007L35.999998 36.500005C33.799997 36.000005 31.299996 35.400007 28.899996 35.900007L28.699995 34.900007C31.199995 34.400007 33.899995 35.000005 36.199998 35.500005L52.899999 39.400007C53.899999 39.600008 54.499998 39.600008 54.8 39.200006L55.2 38.700006 55.600004 39.200006C55.9 39.500005 56.100004 39.900007 56.300004 40.400007L57.200006 40.300008 58.000005 41.600008C58.100004 41.600008 58.100004 41.600008 58.200006 41.500009 58.900007 41.40001 59.700006 42.000009 60.100008 42.600008 60.400007 43.000009 60.900007 43.200006 61.000009 43.200006L61.800008 40.100008 61.900007 43.300008C61.900007 44.300008 62.600008 45.20001 63.400007 45.600008L63 46.5Z" fill="#8b0dd8"/>
<path transform="matrix(1.1775494,0,0,1.174205,107.199649,148.04984)" d="M59.8 40.4C59.3 39.9 58.6 39.5 57.899999 39.2 53.8 37.3 49.399999 36 45 35.3L44.6 35.2C42.6 34.9 40.6 34.600004 39 33.3 38.9 33.2 38.8 33.1 38.7 33 38.4 32.7 38.100004 32.5 37.8 32.4 37.5 32.300004 37.2 32.4 36.899999 32.4H36.8C33.3 32.800004 29.599999 31.900002 26.699999 29.900002L27.3 29.100003C30 31.000002 33.399999 31.800004 36.699998 31.400002H36.799997C37.199998 31.300002 37.599996 31.300002 38.099996 31.400002 38.699995 31.500002 39.099996 31.900002 39.399995 32.2 39.499994 32.3 39.599996 32.4 39.699995 32.5 40.999994 33.6 42.899995 33.9 44.79999 34.2L45.199995 34.3C49.79999 35 54.199995 36.3 58.399995 38.3 59.199995 38.7 59.899995 39.1 60.599996 39.7L59.8 40.4Z" fill="#8b0dd8"/>
<path transform="matrix(1.1775494,0,0,1.174205,107.199649,148.04984)" d="M60.8 38.3 59.899999 37.8C60.199998 37.3 59.999998 36.5 59.499998 36.2 58.999998 35.9 58.299997 36 57.899999 36.4L57.1 35.800004C57.1 35.800004 57.1 35.700006 57.1 35.600004 57 35.4 56.8 35.2 56.6 35.100004 56.399999 35.000005 56.199998 35.000005 56 34.9 55.6 34.800004 55.3 34.7 54.9 34.5 54.7 34.4 54.600004 34.3 54.4 34.1 54.300004 34 54.2 33.899999 54.100004 33.899999 53.800004 33.699998 53.500005 33.6 53.2 33.499998 51.7 32.999998 50 32.499998 48.3 32.699998 48 32.699998 47.7 32.799997 47.3 32.6 47 32.5 46.8 32.199998 46.6 32.1 46.6 32.1 46.5 31.999999 46.5 31.999999 45.9 31.399998 44.7 31.599999 43.7 31.799998L42.4 32.1 43.2 30.999999C43.2 30.899998 43 30.699999 42.8 30.599999 42.7 30.599999 42.6 30.499999 42.5 30.499999 42.1 30.299998 41.5 30.199999 41.3 29.599999 41.2 29.499999 41.2 29.3 41.2 29.199999 41.2 29.099999 41.2 29.099999 41.100004 28.999999 41.000005 28.799998 40.600004 28.799998 40.2 28.899998 40 28.999999 39.9 29.099999 39.7 29.099999 39.4 29.3 39 29.499999 38.5 29.499999 38 29.599999 37.4 29.399998 37.1 28.999999 37 28.899998 36.899999 28.699999 36.8 28.599999H35.2V27.599999H37.9L37.7 28.199999C37.7 28.199999 37.7 28.3 37.7 28.3 37.8 28.4 38 28.5 38.2 28.5 38.5 28.5 38.8 28.3 39.100004 28.2 39.300004 28.1 39.500005 28 39.7 27.900002 40.5 27.600003 41.5 27.7 41.9 28.500002 42 28.600003 42 28.800002 42 28.900002 42 29.000002 42 29.000002 42.1 29.100003 42.199998 29.300004 42.5 29.400002 42.8 29.500002 42.899999 29.500002 43 29.600003 43.1 29.600003 43.5 29.800004 43.899999 30.100003 44.1 30.600003 45.199998 30.400002 46.399999 30.400002 47.199998 31.200003 47.299997 31.300004 47.299997 31.300004 47.399999 31.400004 47.499998 31.500004 47.6 31.600005 47.699998 31.700003 47.799997 31.700003 47.899999 31.700003 48.1 31.700003 50 31.500002 51.8 32.100004 53.399999 32.600004 53.8 32.7 54.3 32.9 54.6 33.100004 54.699998 33.2 54.899999 33.300004 55 33.4 55.1 33.5 55.2 33.600004 55.3 33.7 55.5 33.8 55.8 33.9 56.1 34 56.399999 34.1 56.6 34.1 56.899999 34.2 57.3 34.4 57.699998 34.7 57.899999 35.100004 58.6 34.800004 59.399999 34.9 59.999998 35.300004 61 36 61.3 37.3 60.8 38.3Z" fill="#8b0dd8"/>
<path transform="matrix(1.1775494,0,0,1.174205,107.199649,148.04984)" d="M79.8 36.3 79 35.7C79.9 34.5 80.5 33.100004 80.8 31.7L81.8 31.900002C81.8 31.900002 81.8 32 82 32.2 82.2 32.3 82.7 32.3 82.9 32.100004 83.4 31.600003 83.4 30.800004 83.4 30.000002V29.200003L84.1 29.500002C84.299999 29.600003 84.6 29.500002 84.799999 29.200003 84.99999 28.900004 85.1 28.500002 85.2 28.100003L85.5 26.800004 86 28 86.3 26 87 27C87.1 27 87.6 26.8 87.8 26.4L89.4 23.699999 89.9 23.9C90 23.8 90 23.6 90 23.4 90.1 23 90.2 22.5 90.6 22.199999 90.9 21.9 91.299999 21.9 91.7 21.8 91.799999 21.8 91.899997 21.8 92 21.8 92.2 21.8 92.3 21.699999 92.3 21.599999L91.3 18.399998 93.200008 21.299998H93.3C93.5 21.299998 93.8 20.999999 93.9 20.699997 93.9 20.499997 93.9 20.199997 93.9 19.899998 93.9 19.399998 93.9 18.799998 94.200008 18.299998L94.600009 17.599997 95.100009 18.199997C95.3 18.499997 95.600009 18.499997 95.90001 18.399998 96.20001 18.299998 96.50001 18.199997 96.600009 17.899998L97.600009 18.199997C97.40001 18.799998 96.90001 19.299998 96.200008 19.499997 95.8 19.599997 95.4 19.499997 95.100009 19.399996 95.100009 19.599997 95.100009 19.699995 95.100009 19.899996 95.100009 20.199995 95.100009 20.499997 95.100009 20.899996 95.00001 21.599997 94.40001 22.199995 93.8 22.299996 93.700008 22.299996 93.5 22.299996 93.4 22.299996 93.200008 22.599995 92.8 22.799996 92.5 22.799996 92.4 22.799996 92.3 22.799996 92.1 22.799996 91.9 22.799996 91.7 22.799996 91.6 22.899996 91.5 22.999997 91.4 23.299996 91.4 23.499997 91.3 23.899996 91.200008 24.499997 90.700008 24.799996L90.50001 24.899996 90.200008 24.799996 89.00001 26.799996C88.700008 27.299996 88.00001 27.899996 87.40001 27.899996H87.30001L86.90001 31.199995 86.00001 29.399996C85.90001 29.499997 85.90001 29.599997 85.80001 29.699995 85.50001 29.999995 85.10001 30.299996 84.60001 30.399996 84.60001 31.199995 84.40002 32.099996 83.80001 32.699998 83.20001 33.199998 82.40001 33.199998 81.80001 32.899999 81.1 34.2 80.5 35.3 79.8 36.3Z" fill="#8b0dd8"/>
<path transform="matrix(1.1775494,0,0,1.174205,107.199649,148.04984)" d="M112.2 46.4 109.7 40.800004 108.799999 41.800004 108.399997 41.4C107.899997 40.9 107.09999 41.100004 106.2 41.300004 105.299999 41.500005 104.299999 41.700006 103.6 41.200006L102.6 43.000005 102.1 42.700006C100.299999 41.300004 97.799999 40.900007 95.6 41.500005L95.4 41.600004 91.3 39.2C90.9 39.9 90.200008 40.4 89.5 40.7L88.9 40.9 89 40.3C89 40 88.8 39.7 88.6 39.5 88.6 39.7 88.5 39.8 88.4 40 88.1 40.4 87.700008 40.7 87.3 40.8L87 39.8C86.9 39.8 86.8 40 86.8 40.1 86.8 40.1 86.9 40.199998 86.9 40.199998 86.9 40.199998 86.8 40.199998 86.6 40.499998L86 41.1 85.4 39.5 81.8 43.9H79.200008V42.9H81.4L85.8 37.5 86.4 39.3C86.6 39.2 86.8 39.2 87 39.2 87.2 39.2 87.4 39.3 87.5 39.5 87.6 39.3 87.7 39.1 87.6 38.9L87.4 38 88.200008 38.2C88.9 38.3 89.50001 38.8 89.8 39.5 90.3 39.2 90.600009 38.8 90.8 38.3L91 37.7 95.7 40.5C97.899997 39.9 100.399997 40.4 102.399997 41.6L103.59999 39.399999 103.99999 40.199998C104.299999 40.699998 104.899997 40.6 105.99999 40.399999 106.899997 40.199998 107.99999 39.999998 108.799999 40.399999L110 39 111.3 42 111.4 41.9C112 41.300004 113 41.100004 113.9 41.2 114.200008 41.3 114.6 41.3 114.9 41.4 115.6 41.600004 116.3 41.800004 117 41.600004L117.3 42.500005C116.4 42.800004 115.5 42.600004 114.700008 42.400007 114.4 42.300008 114.100009 42.200006 113.8 42.200006 113.200008 42.100008 112.5 42.300004 112.100009 42.600008 111.90001 42.800008 111.90001 42.900007 111.90001 43.100008L112.2 46.4Z" fill="#8b0dd8"/>
<path transform="matrix(1.1775494,0,0,1.174205,107.199649,148.04984)" d="M106.8 39.5 106.100009 39.2C105.700008 39 105.3 38.7 105.100009 38.3 103.50001 38.399999 101.90001 38.3 100.3 37.899999L99.4 38.6 97.700008 36.6C97.700008 36.5 97.600009 36.5 97.600009 36.5 97.600009 36.5 97.600009 36.6 97.50001 36.7V36.9C97.40001 37.2 97.40001 37.600004 97.00001 37.9L96.7 38 96.399997 37.7C95.99999 37.4 95.7 37 95.399997 36.600004 95.2 36.800004 94.899997 37.000005 94.59999 37.000005 94.29999 37.100004 93.99999 37.000005 93.69999 36.700006 93.59999 36.600008 93.59999 36.600008 93.49999 36.500005 93.49999 36.700006 93.399997 36.900007 93.299999 37.000005 93.1 37.200006 92.899997 37.300004 92.6 37.300004 92.299999 37.300004 91.9 37.100004 91.7 36.9 91.6 36.800004 91.5 36.600004 91.399997 36.5 91.299999 36.4 91.299999 36.3 91.2 36.2 90.7 35.7 89.7 36.4 89.299999 36.9L88.6 36.2C89.6 35.3 91 34.600004 91.9 35.5 92.1 35.7 92.200008 35.9 92.3 36 92.4 36.1 92.4 36.2 92.5 36.3L92.6 36.399999C92.6 36.3 92.6 36.3 92.6 36.199998 92.6 35.899999 92.7 35.299997 93.2 35.199998 93.799999 35.1 94.1 35.6 94.2 35.899999 94.2 35.999998 94.299999 36.1 94.299999 36.1 94.399997 36.1 94.7 35.899999 94.899997 35.5L95.399997 34.5 95.799999 35.5C95.899997 35.9 96.1 36.2 96.399997 36.5V36.4C96.49999 35.800004 96.99999 35.300004 97.7 35.5 97.899997 35.6 98.2 35.7 98.299999 36L99.299999 37.2 99.799999 36.8 99.99999 36.899999C101.59999 37.3 103.299999 37.499998 104.99999 37.3H105.399997L105.49999 37.6C105.59999 37.699998 105.59999 37.899999 105.69999 38 105.99999 37.6 106.49999 37.3 106.99999 37.3 107.59999 37.3 108.19999 37.5 108.799999 38L108.2 38.8C107.799999 38.5 107.399997 38.3 107 38.3 106.7 38.3 106.4 38.6 106.4 38.8V39.5H106.8Z" fill="#8b0dd8"/>
</g>
<g clip-path="url(#clip_4)">
<g clip-path="url(#clip_5)">
<g clip-path="url(#clip_6)">
<g clip-path="url(#clip_7)">
<g clip-path="url(#clip_8)">
<path transform="matrix(.07044439,-.02597683,.025979862,.070452619,119.83429,123.28769)" d="M697.56 666.38C709.37 666.28 721.17 666.15 732.98 666.12 735.6575 666.1871 738.32418 666.39376 740.98 666.74 743.47 667 745.44 669.58 745.51 672.51 745.58 675.44 743.51 678.18 741.25 678.51 739.67196 678.8049 738.082 679.0048 736.48 679.11 725.2133 679.4167 713.94668 679.69 702.68 679.93 695.70486 679.9275 688.7549 680.3441 681.83 681.18 674.43 682.25 666.83 682.08 659.37 682.51 658.82308 682.589 658.3631 682.83236 657.99 683.24 657.32 683.93 657.57 684.82 658.69 685.56 659.6009 686.1307 660.54757 686.63406 661.53 687.07 673.0567 692.8113 684.8567 697.9213 696.93008 702.4 709.0434 706.7467 721.0967 711.24337 733.09 715.89 735.5377 717.01406 737.6944 718.54739 739.56 720.49 740.62 721.49 741.1 723.22 741.56 724.70999 742.13 726.49996 740.33 729.31997 738.63 729.79 735.4282 730.69009 732.26156 730.5801 729.13 729.45999 720.02 726.27999 710.89 723.13998 701.87 719.72 689.87 715.14999 677.93 710.32998 665.96 705.63998 664.81 705.18997 663.57 705.36996 663.12 706.39999 662.8649 707.3439 663.0116 708.2206 663.56 709.02999 664.8119 710.7777 666.2019 712.4077 667.73 713.92 683.85 729.66 699.45999 745.92 717.17 759.99 718.813 761.37057 720.2897 762.9105 721.6 764.61 722.1902 765.5087 722.5902 766.48538 722.8 767.54 723.27999 769.23 722.11 772.02999 720.45999 773.13 719.1 774.03 717.55996 774.64 715.95999 773.86 713.48837 772.8348 711.13839 771.5814 708.91 770.1 703.77999 766.23 698.66 762.29 693.91 757.97 683.17666 748.23666 672.58 738.35336 662.12 728.31997 657.5 723.86996 653.49 718.77999 649.06 714.1 645.75 710.61 642.23 707.3 638.76 703.95999 637.69 702.95999 636.76 703.17996 636.23 704.44998 635.9698 704.90188 635.8364 705.38858 635.82998 705.91 636.02328 707.49429 636.37997 709.04098 636.89999 710.55 642.11996 723.47 647.27999 736.43 652.74 749.26 657.57 760.60006 662.74 771.79006 667.74 783.06 668.9042 785.4743 669.87417 787.9643 670.64999 790.52999 671.22018 792.61099 671.36349 794.721 671.07998 796.86 670.7004 798.42288 669.8771 799.6995 668.61 800.69 667.26998 801.8 663.76 801.15 662.61 799.84 661.11947 798.3263 659.8261 796.65969 658.73 794.84 655.31 788.15 651.98 781.42007 648.87 774.58 643.99 763.85006 639.33999 753 634.52999 742.23007 634.01296 741.27987 633.3463 740.4498 632.52999 739.74008 632.0983 739.3789 631.6017 739.2156 631.04 739.25009 630.5814 739.3511 630.2781 739.62448 630.13 740.07009 629.7023 743.23648 629.43899 746.41647 629.34 749.61007 629.34 763.02 629.49008 776.44009 629.43008 789.86007 629.3255 793.064 628.9921 796.244 628.43008 799.4 628.09 801.71 624.73007 804.07 622.43008 803.83 619.92007 803.58 617.10006 801.09 616.84 798.83 616.60006 796.7 616.37008 794.56 616.34 792.43 616.04006 774.19 615.7734 755.94668 615.54006 737.7 615.62667 731.7758 614.7767 725.98916 612.99008 720.34 612.84 719.89 612.29006 719.34 611.88009 719.27 611.317 719.3721 610.907 719.6787 610.6501 720.19 609.32009 723.08 607.87008 725.94 606.82009 728.95 602.42007 741.60006 598.23007 754.34 593.82009 766.95 591.82009 772.51 589.63009 777.95 587.25009 783.36 586.2369 785.25228 584.99026 786.9756 583.5101 788.52999 581.74008 790.68 577.7001 792.04 576.42007 790.88998 574.79269 789.2958 574.0593 787.3624 574.22006 785.08999 574.22006 781.25997 575.39 777.75997 576.64 774.18 584.25 752.43 591.69 730.62 599.17007 708.82 599.7327 707.55197 599.3694 706.6619 598.08 706.15 597.26 705.9 596.14 706.49008 595.2 706.83 594.6988 707.0412 594.2688 707.3512 593.91006 707.76 584.0101 718.34 574.1267 728.93 564.26 739.53 554.3933 750.13009 544.5833 760.7967 534.83 771.53 532.70028 774.02767 530.1136 775.891 527.07 777.12008 525.48208 777.7641 523.96878 777.6208 522.53 776.69009 520.93008 775.69009 519.68008 772.69009 520.22006 771.07009 520.76 769.4501 521.08 767.86007 522.03 766.6601 527.38 759.9501 532.72006 753.2201 538.38 746.7801 545.11 739.13009 552.12 731.7801 558.59 723.8401 564.01 717.2101 570.37008 711.3601 576.22006 705.07009 578.39 702.73007 580.29006 700.13009 582.29006 697.63009 583.03 696.69009 582.63009 696.63009 581.35006 696.48007 579.7558 696.40347 578.25247 696.7368 576.84 697.48007 561.63 704.2 546.44 710.94009 531.63 718.48007 527.8224 720.4414 523.9124 722.17147 519.9 723.67007 518.55007 724.18008 516.73007 723.82009 515.22006 723.46 511.42005 722.54006 509.87004 717.24008 512.30007 714.38 514.4718 711.9513 517.03848 710.058 520.00009 708.7 532.98007 702.28 545.98007 695.87 559.00009 689.47006 560.42098 688.7702 561.7876 687.97689 563.10006 687.09 563.45266 686.6659 563.5793 686.18258 563.48007 685.64 563.342 685.1586 563.07199 684.7687 562.67007 684.47006 562.2747 684.1147 561.81137 683.92807 561.28 683.91006 550.60006 685.26 539.86007 684.91006 529.13 685.09 521.13 685.24008 513.05 685.66006 505.01 685.83 502.71543 685.7965 500.8521 684.8832 499.42 683.09 498.07 681.57 498.13 678.32 499.66 677.30007 501.42 676.1401 503.21 674.48007 505.15 674.22006 515.75 672.75009 526.2 670.32 537.02 670.34 550.42007 670.34 563.83 669.75 577.23007 669.34 578.59 669.34 579.15 668.34 578.81008 667.34 578.6517 666.8259 578.38168 666.3792 578 666 577.2331 665.24569 576.36978 664.6257 575.41 664.14 561.56997 658.34 547.67 652.67007 533.83999 646.84 523.97 642.67007 514.17 638.34 504.35997 634.02 502.2127 633.039 501.0394 631.3723 500.83998 629.02 500.32997 625.34 504.65998 621.30007 508.05998 622.45 515.67 625.02 523.29 627.62 530.74996 630.58 549.19998 637.89 567.5499 645.42007 585.97 652.76 586.75 653.07 587.91 652.41006 588.89999 652.2 588.68997 651.31 588.76998 650.2 588.24 649.56 581.89 642.29 575.43 635.13 569.05 627.88 561.25 619.02 553.48 610.13339 545.74 601.22006 542.89669 597.9145 540.98336 594.1378 540 589.89 539.57 588.09 541.84 585.58 543.79 585.66006 547.1682 585.6679 550.0982 586.81796 552.57998 589.11007 556.77999 593.23007 560.74996 597.60006 564.69998 601.96 570.1 607.96 575.36996 613.96 580.76998 619.96 581.90957 621.08 583.14627 622.08 584.48 622.96 584.9174 623.2591 585.40078 623.4224 585.93 623.45 586.45 622.59 587.21 621.61 587.14999 620.71 587.00686 619.1116 586.62686 617.5716 586.00997 616.09 581.80996 605.07 577.5633 594.07 573.26998 583.09 571.75796 579.60879 570.92129 575.9721 570.75997 572.18008 570.83016 570.57797 571.10348 569.0113 571.57998 567.48007 572.20999 565.09 575.85 563.48007 578.12997 564.54006 580.12997 565.46 581.95999 566.68008 582.83999 568.71 585.38998 574.62 587.93 580.53 590.19998 586.54006 594.74996 598.54006 599.08999 610.69009 603.58999 622.75009 604.70999 625.75009 606.1 628.63009 607.45999 631.5301 607.7808 632.0062 608.2275 632.26626 608.8 632.3101 609.08999 632.3101 609.64 631.70016 609.7 631.3101 610.1404 628.6969 610.42709 626.0669 610.56 623.4201 610.81338 607.8468 611 592.28347 611.12 576.7301 611.0213 571.3206 611.6113 565.98727 612.89 560.7301 613.23178 559.7164 613.65847 558.7397 614.17007 557.8001 615.17007 555.58016 619.04006 554.7201 621.09 556.14016 623.5266 557.65499 624.93 559.83499 625.30007 562.6801 625.5863 565.33938 625.70297 568.006 625.65 570.6801 625.55007 582.4901 625.27 594.2901 625.27 606.1001 625.27 611.9901 625.74 617.8701 626.06 623.7501 626.15798 624.312 626.44796 624.74539 626.93 625.0501 627.66 625.4801 628.52999 624.9801 628.93 623.7401 631.23 617.1601 633.39 610.5301 635.75 603.9701 639.39 593.8901 643.09 583.82009 646.94 573.82009 647.8363 571.8719 649.003 570.10189 650.44 568.5101 651.62478 567.1957 653.0781 566.7424 654.8 567.1501 656.4585 567.54129 657.5685 568.54129 658.13 570.1501 658.44528 571.7213 658.6219 573.308 658.66006 574.9101 658.49008 579.2301 657.2 583.2901 655.82 587.4001 650.71 602.6401 645.87 617.9801 640.87 633.2601 640.47 634.48007 640.35 635.4001 641.32 636.0901 641.718 636.4034 642.16799 636.5267 642.67 636.4601 643.69326 636.1699 644.6232 635.6966 645.45999 635.0401 648.62997 632.1501 651.64999 629.1001 654.80996 626.1901 670.2 612.14 685.66 598 701 583.82 704.72 580.38 709.17 578.82 714 577.88 716.37 577.42 719.19 580.77 718.66 583.18 717.8834 586.96536 716.1201 590.21536 713.37 592.93 709.15 597.04 704.7 600.93 700.37 604.93 689.35 615.13 678.35 625.35336 667.37 635.6 666.65658 636.40609 666.1099 637.31277 665.73 638.31997 665.6 638.6 665.86 639.20999 666.12 639.4799 666.38 639.7499 667.12 640.2799 667.45 640.18997 673.76 638.63998 679.32 635.33999 685.08 632.52999 689.91006 630.18997 694.60006 627.57998 699.45 625.27999 701.9447 624.11349 704.55807 623.7035 707.29006 624.05 709.55538 624.4442 711.142 625.6976 712.05007 627.81 712.8103 630.0967 712.31698 632.07 710.57009 633.73 708.638 635.5888 706.498 637.16549 704.1501 638.45999 690.07009 646.26998 675.5201 653.12997 660.7301 659.45999 657.7301 660.73 654.8201 661.98 651.9501 663.45999 650.7801 664.04 650.57009 665.08999 651.17007 665.74996 651.53817 666.17007 651.99819 666.4234 652.55007 666.50997 658.44009 666.7399 664.3301 667.05996 670.22006 667.0499 679.35006 667.0499 688.47006 666.81997 697.59 666.67996L697.56 666.38Z" fill="#fffd12"/>
<path transform="matrix(.07044439,-.02597683,.025979862,.070452619,119.83429,123.28769)" d="M137.41 188.53C137.13 179.41 136.79001 170.3 136.6 161.18 136.51001 156.35999 136.6 151.53 136.81002 146.70999 137.01737 143.86666 138.25403 141.57999 140.52002 139.84999 143.11002 137.71999 147.78002 138.68 148.58002 141.71999 149.27486 144.29943 149.77486 146.91609 150.08002 149.56999 152.34001 170.40999 152.08002 191.32999 151.83002 212.25 151.83002 215.47 151.73001 218.7 151.99002 221.9 152.22933 223.46929 152.74933 224.93929 153.55002 226.31 153.89002 226.97 155.70001 225.56999 156.81002 223.52 161.69002 214.58 166.70001 205.70001 171.38 196.65001 178.53 182.84001 185.38 168.89002 192.51001 155.05002 193.98459 152.20201 195.71459 149.51868 197.7 147 199.25446 145.24655 201.18779 144.55989 203.5 144.94 204.68 145.05 207.08 146.58 207.2 147.59 207.45 149.69 208.02 151.92 207.56999 153.9 206.83847 157.03185 205.74515 160.03185 204.29 162.9 198.34999 174.9 192.29 186.9 186.18999 198.81999 185.41562 200.23343 185.12563 201.7401 185.31999 203.34 185.49999 204.68 185.59999 205.09999 186.48 204.45999 187.81954 203.59084 189.0962 202.63751 190.31 201.59999 194.19 197.88999 197.98999 194.09999 201.79 190.31 204.13584 188.02031 206.8625 186.35366 209.97 185.31 211.65859 184.81243 213.11193 185.19908 214.33 186.47 215.44 187.73 216.18001 189.29001 215.52 190.85 214.73572 192.85861 213.66239 194.69861 212.3 196.37001 209.49 199.6 206.39 202.59001 203.38 205.65001 196.24118 212.92432 189.59119 220.62099 183.43001 228.74 183.24887 229.15998 183.28554 229.55997 183.54001 229.94 183.85 230.28 184.54001 230.69 184.85 230.54001 198.13 223.54001 211.45001 216.68001 224.62001 209.54001 233.1 204.93001 241.37001 199.93001 249.73001 195.11002 252.5127 193.34087 255.55269 192.44086 258.85 192.41002 261.1632 192.4093 262.99324 193.3493 264.34 195.23003 265.56 196.90003 264.81 201.42003 263.22 202.71002 261.60957 204.11287 259.8962 205.3762 258.08 206.50002 244.56999 214.21002 231.07999 221.95001 217.44998 229.45001 205.25998 236.15001 192.87998 242.54001 180.60999 249.11002 179.37172 249.78728 179.10506 250.73729 179.80998 251.96002 179.98998 252.36002 180.59998 252.60002 181.04999 252.83002 181.50463 253.11348 181.99796 253.2868 182.52999 253.35002 198.05998 253.35002 213.58998 254.60002 229.10999 252.29003 238.66999 250.87003 248.37999 251.21002 258.03999 251.62003 261.412 251.82593 264.2553 253.15926 266.56999 255.62003 268.38999 257.39 268.30998 261.2 266.38999 262.83003 264.34474 264.66889 261.96473 265.8089 259.24998 266.25004 257.11653 266.4889 254.9765 266.59223 252.82997 266.56004 229.75664 266.89338 206.68663 267.22669 183.61997 267.56004 182.00997 267.56004 180.40996 267.68003 178.80997 267.83003 177.38997 267.96003 176.80997 268.68003 177.13997 269.83003 177.2155 270.35966 177.41217 270.83964 177.72997 271.27003 183.46997 276.27003 190.35997 279.27003 197.05997 282.56004 202.34996 285.16004 207.89997 287.24003 213.12998 289.95005 227.88997 297.59007 242.55997 305.41004 257.22999 313.22004 259.75456 314.49598 261.39787 316.49598 262.15998 319.22004 262.5294 320.56559 262.34864 321.83265 261.61769 323.0212 260.88673 324.20979 259.8375 324.94273 258.46998 325.22004 255.7585 325.7615 253.13184 325.4882 250.58997 324.40003 245.72997 322.16004 240.95996 319.69004 236.16997 317.29005 223.70996 311.04005 211.26998 304.75004 198.77997 298.54005 196.8295 297.65248 194.8295 296.8958 192.77997 296.27006 191.51471 295.75813 190.58138 296.1148 189.97997 297.34007 189.83049 297.8248 189.91049 298.26814 190.21997 298.67005 191.69997 300.19004 193.21997 301.67005 194.79998 303.10005 203.16997 310.63005 211.60997 318.10005 219.91997 325.70005 221.87078 327.5454 223.59078 329.58543 225.07997 331.82005 226.42745 333.8147 226.47745 335.84135 225.22997 337.90003 224.37996 339.49003 221.48996 340.03004 219.46997 339.21003 216.44217 338.04087 213.6955 336.40089 211.22997 334.29 203.5833 327.56336 195.88663 320.89668 188.13997 314.29 182.84998 309.75 177.48998 305.29 172.13997 300.83003 171.13997 299.95 169.97997 299.99003 169.49997 300.99003 169.1218 301.9197 168.93514 302.88639 168.93997 303.89 169.00634 304.43009 169.19966 304.9201 169.51998 305.36003 174.63997 314.79 179.68997 324.25 184.90998 333.62004 191.44997 345.32005 198.14998 356.94004 204.71997 368.62004 205.7925 370.47734 206.6225 372.43733 207.20998 374.50004 207.57901 376.06837 207.61902 377.64503 207.32997 379.23005 207.05184 380.27073 206.51184 381.15074 205.70998 381.87007 204.88997 382.71006 202.14998 382.61006 201.19998 381.87007 199.49144 380.59367 197.86476 379.22035 196.31998 377.75007 191.81998 373.06007 188.63999 367.46006 185.43997 361.86006 176.10665 345.56004 166.7733 329.2867 157.43997 313.04005 157.19609 312.54286 156.83609 312.15284 156.35997 311.87004 155.49901 311.4516 154.59568 311.16828 153.64997 311.02003 153.44997 311.02003 152.93996 311.86003 152.87996 312.35 151.97997 319.80003 150.87996 327.23 150.34996 334.7 150.10282 338.9933 150.29615 343.26664 150.92996 347.52003 152.36997 358.23 151.59996 368.95 151.28997 379.67 151.16133 382.4315 150.25467 384.90815 148.56996 387.1 147.16997 389.01 143.15996 389.26 141.29996 387.66 139.63742 386.2116 138.5241 384.4216 137.95996 382.29 137.49593 380.74067 137.2626 379.15736 137.25997 377.54 137.55997 358.77003 135.85997 340 137.07997 321.22 137.52997 314.28 137.89998 307.29 136.73998 300.35 136.61249 299.81678 136.33914 299.37345 135.91997 299.02003 135.19997 298.37004 134.25997 298.6 133.52997 299.7 132.64434 301.04594 131.83434 302.43595 131.09998 303.87004 119.239978 326.11006 107.38664 348.3567 95.53998 370.61003 94.279979 372.97 93.04998 375.37004 91.60998 377.61003 90.67595 378.9176 89.625949 380.12428 88.45998 381.23 87.279979 382.49003 84.099979 382.77003 82.45998 381.84 80.56998 380.76 78.989978 378.21 79.31998 376.66999 79.59558 375.09666 79.988918 373.5533 80.49998 372.03999 84.33998 362.03999 89.42998 352.55998 94.54998 343.12998 100.94998 331.34999 107.06998 319.41999 113.21998 307.49998 113.63998 306.70997 113.29998 305.49998 113.31998 304.49998 113.31998 303.04997 111.31998 303.04997 109.31998 304.49998 107.61998 305.79997 105.809978 306.98997 104.24998 308.44999 94.85998 317.25999 85.529979 326.13999 76.17998 334.99 73.449977 337.56999 70.86998 340.31999 67.96998 342.69999 65.73291 344.529 63.212915 345.09236 60.409978 344.38999 57.82998 343.84 55.769979 340.49 56.779977 338.21998 57.313394 336.7122 58.046728 335.30885 58.979978 334.00999 62.169977 330.38999 65.40997 326.78999 68.90997 323.47999 79.81998 313.15998 90.90997 302.99998 101.849979 292.72999 103.31998 291.34999 105.169979 290.08 105.18997 287.72999 105.18997 287.4 104.379978 286.72999 104.00997 286.77998 102.417118 286.82518 100.87379 287.12519 99.379978 287.67997 81.54 296.22 64 305.42 47 315.67 43.33 317.89 39.65 320.1 35.94 322.24003 34.526517 323.00679 33.076517 323.69679 31.589999 324.31004 29.389998 325.31004 25.439999 324.15003 24.409998 322.31004 23.239998 320.19004 23.539998 316.17 25.039998 314.71003 26.121787 313.52668 27.308453 312.46 28.599997 311.51 36.249998 306.51 43.719999 301.27003 51.71 296.92 65.36 289.49003 79.369998 282.71003 93.18 275.57 95.52 274.36003 98.26 273.65 99.78 271.21003 100.01504 270.7207 100.06171 270.21406 99.92 269.69004 99.801509 269.2164 99.5315 268.8564 99.11 268.61006 98.16463 268.12925 97.16463 267.83259 96.11 267.72004 85.91 267.64006 75.72 267.57005 65.520008 267.72004 62.30854 267.84974 59.121873 268.20307 55.960004 268.78004 47.960004 270.03004 39.960004 269.88005 31.860003 269.58003 29.731202 269.36756 27.664534 268.88755 25.660004 268.14 22.660004 267.22 20.660004 264.38 21.350005 262.31004 21.91755 259.98274 23.367548 258.54606 25.7 258 33.58 256.47 41.440004 254.8 49.54 254.68 66.71 254.43 83.87 254.01999 101.04 253.68 103.17 253.68 105.3 253.40999 107.42 253.18 107.85 253.18 108.64 252.59 108.61 252.46999 108.31 251.46999 108.13 250.12999 107.41 249.62999 105.16436 248.16674 102.831027 246.86006 100.41 245.70999 77.91 234.45 55.32 223.27 32.79 212 29.498253 210.22699 26.31492 208.277 23.240002 206.15 21.62 205.07999 21.080002 202.26 21.830002 200.31999 22.651925 198.06601 24.25859 196.84268 26.650002 196.65 28.263964 196.38307 29.840632 196.5264 31.380002 197.07999 41.2 201.36998 51 205.72998 60.690004 210.29 70.87 215 80.92 220.07 91.05 225 91.558589 225.3101 92.09241 225.36238 92.65148 225.15685 93.21056 224.9513 93.583408 224.56569 93.770008 224 94.08329 223.07332 94.08329 222.14665 93.770008 221.22 93.3097 220.23908 92.689708 219.3724 91.91 218.62 90.48 217.01999 88.91 215.54 87.490009 213.94 78.62 203.88 69.73 193.84 60.940008 183.71 59.642419 182.00463 58.519086 180.19129 57.570009 178.27 56.740007 176.82 57.670007 173.7 59.210008 172.46 60.750009 171.22002 63.880006 170.94 65.21001 172.05 66.89681 173.32213 68.49348 174.69879 70 176.18 77.69 184.40999 85.75 192.28 92.71 201.18 96.31 205.79999 100.229999 210.28 105.3 213.48999 106.41 214.18999 106.36 213.93 106.48 212.56 106.68 210.23999 105.58 208.44 104.73 206.56 99.01 193.84 93.170009 181.18 87.47 168.45999 84.61667 162.09999 81.89667 155.68334 79.31 149.20999 78.802288 147.65984 78.69895 146.08316 79 144.48 79.298519 142.12746 80.55518 140.52745 82.77 139.68 84.96208 138.76725 86.96208 139.08058 88.77 140.62 89.99794 141.67684 91.07461 142.87018 92 144.2 93.645458 146.96877 95.10545 149.83209 96.38 152.79 106.229999 175.98999 116.83 198.84999 127.81 221.54 129.66 225.34999 131.98 228.93999 134.15 232.59999 134.4951 233.03202 134.94178 233.212 135.48999 233.13999 135.9901 232.85924 136.28678 232.43592 136.37999 231.86998 136.79084 229.24498 137.0475 226.60498 137.15 223.94998 137.23 212.13999 137.15 200.33998 137.15 188.52999L137.41 188.53Z" fill="#fffd12"/>
<path transform="matrix(.07044439,-.02597683,.025979862,.070452619,119.83429,123.28769)" d="M451 355C451.39 365.17 451.77 375.34 452.21 385.51 452.21 385.98 452.69999 386.79 453 386.81 453.88 386.87 455.24 386.93 455.6 386.41999 463 375.90998 470.29 365.31999 477.6 354.74 481.25 349.44999 484.79 344.06999 488.6 338.88 490.175 336.69447 492.01499 334.76115 494.12 333.08003 496.3973 331.2364 498.92063 330.79307 501.69 331.75004 503.32 332.27003 505.47 335.26005 505.12 336.75004 504.8702 338.3407 504.42356 339.87406 503.78 341.35005 502.01945 344.66618 500.09278 347.88285 498 351 491.67 360.3 485.19 369.5 478.82 378.78 477.57688 380.53315 476.5002 382.38313 475.59 384.33 475.33039 385.32133 475.46705 386.25465 476 387.12998 476.51 388.02 477.63 387.81999 478.78 387.25999 483.12 385.16999 487.52 383.18 491.85 381.06999 500.04335 377.06999 508.21336 373.03334 516.36 368.96 519.7804 367.20399 523.40707 366.4773 527.24 366.78 529.5201 367.10939 531.1368 368.32273 532.08999 370.42 532.8919 372.67936 532.46859 374.67936 530.81997 376.42 529.32656 377.9641 527.60989 379.19746 525.6699 380.12004 516.0999 384.95 506.4699 389.65003 496.83995 394.38005 493.47996 396.03004 490.06996 397.60005 486.69993 399.26005 484.28993 400.46006 481.97993 403.39006 482.8499 403.88005 484.1226 404.7051 485.51258 405.20179 487.01994 405.37004 492.3799 405.56004 497.73994 405.44004 503.10993 405.50004 511.10993 405.59004 519.18997 405.67005 527.2299 405.89006 528.8307 406.04554 530.384 406.40553 531.8899 406.97004 534.6199 407.77003 536.3399 412.36006 534.9799 415.10005 534.35018 416.72868 533.1768 417.702 531.4599 418.02006 528.2816 418.41004 525.0916 418.63005 521.8899 418.68006 505.2799 418.88008 488.65989 418.99006 472.0499 419.16007 471.5699 419.16007 470.65989 419.70008 470.6899 419.84007 470.75895 420.85136 471.07563 421.778 471.63993 422.62007 472.77497 423.75468 474.01829 424.75468 475.36994 425.62007 490.36994 435.95005 505.20994 446.55006 521.2399 455.31007 523.58889 456.61479 525.7255 458.20478 527.6499 460.08006 528.69448 461.30763 529.36117 462.71427 529.6499 464.30006 530.3099 466.92005 528.0099 469.71006 525.4399 470.06007 522.71658 470.43193 520.1166 470.0219 517.6399 468.83006 509.44444 464.81718 501.5544 460.27384 493.96989 455.20005 485.86988 449.96006 477.87989 444.55006 469.77989 439.31004 468.83778 438.9265 467.86778 438.83317 466.86988 439.03004 466.46989 439.03004 465.7599 439.81004 465.8199 440.12004 465.9839 441.69618 466.37724 443.21284 466.99989 444.67 472.55989 455.67 478.2299 466.61003 483.85987 477.57 485.2084 479.8818 486.35844 482.28849 487.30989 484.79 487.9187 486.8559 488.03538 488.94926 487.65989 491.07 487.23097 492.62516 486.3676 493.8818 485.0699 494.84 483.67988 495.94999 480.1999 495.46 479.0699 494.23 477.525 492.76759 476.15834 491.15428 474.96989 489.39 468.65989 478.80003 462.57987 468.08003 457.17988 456.98 456.1378 455.1407 454.9111 453.43403 453.49989 451.86003 453.29988 451.61003 452.49989 451.7 452.05989 451.86003 451.61988 452.02003 450.98988 452.28004 450.84989 452.65003 450.18824 454.09498 449.7516 455.60499 449.5399 457.18003 449.08988 466.82005 448.83988 476.47004 448.4299 486.12004 448.32197 488.7943 448.00865 491.4443 447.4899 494.07005 446.86918 496.8164 445.38917 498.97306 443.0499 500.54005 440.9466 501.72175 438.98994 501.51509 437.1799 499.92005 435.1673 497.9584 434.07398 495.57508 433.8999 492.77006 433.81993 484.77006 433.2799 476.68006 434.8999 468.77006 436.1999 462.40007 436.2199 455.99006 436.06993 449.55006 436.01994 447.44007 435.1499 445.77006 434.1299 445.79005 432.41496 445.92985 431.0816 446.7165 430.1299 448.15003 422.29994 457.73 416.1299 468.40003 409.3699 478.73 406.4399 483.22 403.5799 487.73 400.6399 492.24003 400.0018 493.0911 399.30183 493.88777 398.5399 494.63005 397.0699 496.25004 393.2899 496.77006 391.0499 495.52006 388.95545 494.3819 387.95545 492.62193 388.0499 490.24006 388.03276 487.48365 388.79609 484.96366 390.3399 482.68006 398.0999 470.46006 405.85658 458.2434 413.6099 446.03007 415.3299 443.32008 416.9499 440.55006 418.6099 437.81007 419.2899 436.69007 419.0099 435.81007 417.6999 435.26008 417.23069 435.03013 416.7407 434.97013 416.2299 435.08009 414.2299 435.86009 412.2299 436.6501 410.37989 437.61009 400.80989 442.46009 391.2999 447.39009 381.71989 452.21009 378.84989 453.6601 375.86988 454.8701 372.9199 456.14009 371.4899 456.75007 368.3099 455.64009 367.09989 454.22007 365.4199 452.22007 365.36988 448.53007 367.1999 446.86009 369.07765 444.95466 371.14765 443.288 373.40989 441.86009 382.27989 436.86009 391.30989 432.16007 400.2299 427.26008 403.0199 425.72007 406.1799 424.69007 408.2299 421.99009 408.53956 421.52616 408.67289 421.01615 408.62989 420.46009 408.56889 419.99366 408.32554 419.6603 407.89988 419.46009 405.29078 418.91954 402.65745 418.55287 399.99989 418.36009 388.74989 418.01008 377.48988 417.7801 366.2299 417.5601 362.4299 417.49009 358.7099 417.1601 355.4199 415.0601 353.89143 414.24455 353.01475 412.97789 352.7899 411.2601 352.55989 409.0801 353.6099 406.6401 355.49989 405.9501 357.98988 405.0401 360.49989 403.8901 363.11988 403.7101 368.98988 403.2901 374.89988 403.3201 380.79988 403.3301 389.90986 403.3301 399.02989 403.5501 408.14988 403.5401 410.26124 403.4461 412.34123 403.13945 414.38987 402.6201 415.79988 402.33009 416.26988 401.2901 415.46986 400.23008 414.2736 398.4896 412.8936 396.9096 411.32984 395.49009 401.81983 387.64009 392.17985 379.9701 382.68983 372.1001 378.5402 368.7122 374.58354 365.11219 370.81983 361.3001 368.25178 358.6876 367.6651 355.6876 369.0598 352.3001 369.7698 350.3001 372.2998 348.81013 374.1398 349.3001 377.3124 350.04948 380.17909 351.4328 382.7398 353.4501 391.93315 360.83677 401.14317 368.2001 410.3698 375.5401 412.03984 376.8701 413.7998 378.0801 415.56983 379.2501 416.07215 379.5271 416.5888 379.5571 417.1198 379.3401 418.46937 378.82826 418.77604 377.95158 418.03984 376.71009 413.03984 366.0601 407.91984 355.4101 402.91984 344.71009 401.281 341.3438 399.82435 337.90049 398.54985 334.3801 398.06983 332.99009 398.40983 331.21009 398.69984 329.6701 399.0905 328.00944 400.05705 326.81455 401.59944 326.08546 403.14179 325.35639 404.6786 325.36796 406.20985 326.12013 408.66368 327.3672 410.59367 329.17387 411.99986 331.54014 414.64985 336.19013 416.99986 341.03013 419.35984 345.83015 423.89985 354.94013 428.35984 364.09016 432.97984 373.17015 433.32984 373.84016 434.51985 374.17015 435.37983 374.43016 435.53984 374.48014 436.2398 373.67015 436.28984 373.21015 436.6198 370.03016 437.00984 366.84016 437.0598 363.64015 437.18983 353.45014 437.18983 343.26014 437.21983 333.07014 437.21983 328.21015 437.60984 323.41014 439.68983 318.94013 440.36518 317.3128 441.57518 316.37614 443.31983 316.13014 445.68309 315.7271 447.51307 316.53379 448.8098 318.55015 450.25917 320.8771 451.0325 323.41044 451.12983 326.15016 451.3298 332.0368 451.47648 337.93016 451.56983 343.83015 451.62983 347.59016 451.56983 351.34016 451.56983 355.09016L451 355Z" fill="#fffd12"/>
<path transform="matrix(.07044439,-.02597683,.025979862,.070452619,119.83429,123.28769)" d="M383.73 115.46C379.91 115.85 372.46003 116.67 364.99003 117.35 361.26634 117.72992 357.533 117.90992 353.79 117.89 352.15269 117.8135 350.686 117.2735 349.39 116.27 348.1933 115.22739 347.3733 113.94405 346.93003 112.42 346.41004 110.77 348.38005 107.59 349.93003 107.259998 355.68003 106.02 361.42 104.77999 367.21003 103.78999 370.392 103.22595 373.59867 102.962619 376.83003 102.99999 386.02003 103.189998 394.92 101.229999 403.88 99.63999 404.34 99.55999 405.12 98.899997 405.07 98.63999 404.86003 97.78999 404.58003 96.58999 403.95 96.24999 399.21003 93.759998 394.40003 91.40999 389.58003 89.079998 380.91337 84.893329 372.21336 80.72666 363.48 76.579998 360.9845 75.409137 359.03785 73.635799 357.64 71.259998 356.6429 68.976558 357.1429 67.08989 359.14 65.59999 361.07 64.49999 363.21003 63.86999 365.29 64.59999 371.29 66.81999 377.29 69.18999 383.22 71.59999 392.12 75.23999 400.98 78.97999 409.88 82.59999 410.22 82.72999 410.88 82.36999 411.24 82.05999 411.59999 81.74999 411.88999 81.13999 411.75999 80.89999 407.15 72.39999 401.49 64.59999 395.63999 56.899988 391.75999 51.779989 387.96665 46.589986 384.25999 41.329988 383.03999 39.599988 382.03999 37.579988 382.41999 35.329988 382.65916 34.343255 383.18583 33.546594 384 32.94 386.47 31.249999 389.18 31.699999 391.54 33.09 393.37904 34.206148 394.99238 35.586145 396.38 37.23 405.1758 47.35434 413.3158 57.981004 420.8 69.11 422.38267 71.25326 424.1293 73.25326 426.03999 75.11 426.47319 75.489849 426.9665 75.599849 427.52 75.44 428.22999 74.9 429.21 74.14 429.27 73.44 429.68238 67.00116 429.34907 60.601163 428.27 54.24 426.63999 43.63 426.8 32.88 427.36 22.170002 427.62644 19.90233 428.7031 18.125664 430.59 16.840003 433.09 14.900002 437.84 16.060002 438.75 18.960003 439.1667 19.949732 439.47004 20.973065 439.66 22.030003 440.58668 33.77667 441.47669 45.52667 442.33003 57.280004 442.52003 59.950006 442.15003 62.710004 442.68003 65.28 443.48 69.19 441.29 74.159999 446.39 76.67 450.61003 75.57 451.54 71.67 453.29 68.47 458.75 58.620004 464.04 48.690004 469.48 38.83 470.54414 36.9743 471.78749 35.247636 473.21003 33.65 474.72004 31.920002 476.88005 31.510003 479.07 31.590003 481.54 31.690003 483.99003 34.93 483.56 37.22 482.4337 42.51578 480.53038 47.51578 477.85 52.22 474.09 59.33 470.19 66.36 466.48 73.5 465.89558 74.940738 465.56224 76.4374 465.48 77.99 465.43003 78.32 466.15003 79.079998 466.48 79.09 467.49537 79.16868 468.46873 79.002017 469.40003 78.59 476.40003 74.7 483.40003 70.71999 490.40003 66.759998 498.76 62 507 57 516.07 53.49 518.25 52.65 520.29 53.260004 522.21 54.300004 525.83 56.300004 526.71 61.300004 523.74008 63.83 521.7136 65.55942 519.5503 67.096088 517.25009 68.44 503.83006 76.29 490.36006 84.04 476.93006 91.86 475.5188 92.6179 474.26548 93.58123 473.17005 94.75 472.60005 95.39 472.65007 96.66 472.65007 97.65 472.65007 97.9 473.51005 98.32 474.01005 98.36 484.68006 99.24 495.33006 99.75 505.96006 97.69 510.86064 96.56867 515.574 97.102008 520.10006 99.29 521.05007 99.770008 521.95 100.29 522.87008 100.89 525.06008 102.22 525.10006 106.09 523.03 107.83 520.5 109.94 517.71 111.58 514.41006 111.770008 509.06004 112.08 503.70005 112.08 498.34004 112.22 491.39 112.41 484.44004 112.6 477.49003 112.83 476.95857 112.90032 476.5019 113.12366 476.12004 113.5 476.2087 114.49961 476.54206 115.40961 477.12004 116.23 478.29689 117.33197 479.61357 118.22864 481.07005 118.920009 490.23005 123.350009 499.38005 127.840007 508.66004 132.01001 513.13 134.01001 517.33 136.29001 520.54006 140.01001 521.447 141.30547 522.1637 142.69879 522.69009 144.19 523.12008 145.13 521.2801 147.74 520.2801 147.96 516.506 148.73387 512.8093 148.46054 509.1901 147.14 506.1714 146.02588 503.22138 144.75255 500.3401 143.31999 488.68675 137.88666 477.04676 132.43 465.4201 126.94999 464.15013 126.34999 463.3001 126.44999 462.7901 127.789989 462.5873 128.27144 462.564 128.76143 462.7201 129.25998 463.36793 130.71912 464.1146 132.12578 464.96009 133.47998 471.11009 142.90998 477.39009 152.24999 483.4401 161.73998 486.6101 166.73998 489.5401 171.83998 492.24009 177.06998 493.05958 179.06259 493.44627 181.13593 493.4001 183.28998 493.57057 185.05855 492.91645 186.43537 491.4377 187.42043 489.95899 188.40547 488.43647 188.47866 486.8701 187.63999 485.05009 186.56998 483.0301 185.49999 481.74009 183.90999 479.4535 180.93155 477.34019 177.83489 475.4001 174.62 467.8201 162.92 460.3101 151.19 452.6901 139.51999 451.72914 138.27828 450.60249 137.21161 449.3101 136.31999 448.79988 136.09488 448.30323 136.12155 447.8201 136.4 447.34938 136.70449 447.0427 137.1278 446.9001 137.67 446.5434 138.67482 446.4134 139.70816 446.51008 140.77 447.82008 147.12001 447.77009 153.54001 447.85008 159.98001 448.02009 172.85 448.43006 185.71 448.58009 198.58002 448.4824 200.71054 448.10575 202.79055 447.45008 204.82003 447.05009 206.34003 443.82008 208.29003 442.25007 207.82003 440.73753 207.36893 439.36088 206.6556 438.12007 205.68003 437.3017 204.95189 436.7517 204.05857 436.47007 203.00003 434.76838 197.87989 433.83839 192.62322 433.68006 187.23003 433.52006 174.36003 433.20005 161.49002 432.85008 148.62003 432.70973 145.97185 432.42973 143.33852 432.01008 140.72003 431.85646 140.25846 431.54646 139.95845 431.08009 139.82004 430.52183 139.71617 430.0118 139.82952 429.55009 140.16004 428.359 141.21936 427.33235 142.41936 426.4701 143.76004 419.0301 157.41004 411.1201 170.76004 404.74009 185.01004 404.08009 186.47005 403.26008 187.87004 402.4701 189.26004 400.8533 191.92125 398.5566 192.79459 395.58009 191.88004 393.2801 191.04004 391.2501 187.88004 391.58009 185.52004 391.71159 183.92015 392.0449 182.36348 392.58009 180.85004 395.17008 174.97003 397.79008 169.08003 400.68009 163.35004 405.0301 154.73004 409.68009 146.26004 414.0701 137.68004 414.99238 135.76653 415.79237 133.80319 416.4701 131.79004 416.58134 131.28002 416.50468 130.80002 416.24009 130.35004 415.77894 129.0674 414.91227 128.67073 413.64009 129.16004 411.68113 129.94994 409.8011 130.89659 408 132 394.05 141 380.16 150.15 366.22 159.19 364.00337 160.66709 361.70335 162.00041 359.32 163.19 356.68 164.49 352.56 161.7 352.32 158.57 351.88066 155.71242 352.67066 153.24909 354.69 151.18001 357.37715 148.56436 360.24714 146.1677 363.3 143.99 372.56 137.58 381.94 131.36 391.3 125.08 394.41999 122.990009 397.61 121 400.65 118.810009 401.27 118.36001 401.46 117.21001 401.65 116.340007 401.65 116.12 400.84 115.48 400.4 115.48 396 115.43 391.68 115.46 383.73 115.46Z" fill="#fffd12"/>
<path transform="matrix(.07044439,-.02597683,.025979862,.070452619,119.83429,123.28769)" d="M704.17 165.64C706.76998 167.3 709.48 168.85 711.98 170.69 713.87 172.08 713.63 176.31 711.73 177.86 710.9115 178.53339 710.02487 179.10005 709.07 179.56 708.07 180.03 707.07 180.20999 706.07 180.65 705.29348 180.94524 704.7807 181.48912 704.5316 182.28165 704.28256 183.07418 704.39199 183.81362 704.86 184.5 707.12 187.45 710.13 189.81 711.54 193.44 712.47109 195.6299 712.1377 197.60655 710.54 199.37 708.92 200.98 706.85 201.89 704.72 201.12 702.23306 200.14366 699.87637 198.91699 697.64999 197.44 695.42 196.04001 693.64999 193.84 690.88998 193.36 689.6099 193.14 688.64999 193.55 688.33999 194.74 687.43 198.32 686.67 201.95001 685.69998 205.52 685.30996 206.96 681.82998 208.76001 680.2999 208.24 678.75808 207.80188 677.42477 207.01187 676.2999 205.87001 675.35348 204.56029 674.7568 203.10695 674.50997 201.51001 673.97 198.89002 673.81997 196.20001 673.36996 193.56002 672.7299 189.88002 669.43997 188.86002 666.06997 191.23001 665.18997 191.84001 664.2999 192.44002 663.43997 193.09001 661.7399 194.39002 660.08999 195.76001 658.33999 197.01001 657.50936 197.71337 656.56607 198.19669 655.50997 198.46 653.92996 198.68798 652.3633 198.61797 650.80996 198.25 649.2799 197.86 647.94998 194.68 647.9899 192.88 647.95669 190.63219 648.68 188.66219 650.1599 186.97 653.0699 183.83 656.30996 180.97 659.3499 177.97 660.16427 177.25098 660.74758 176.37764 661.0999 175.35 661.381 174.30796 661.20767 173.34795 660.5799 172.47 657.3699 169.66 653.8799 167.16 650.6499 164.36 648.6626 162.57447 646.79928 160.6678 645.0599 158.64 642.9499 156.27 644.7499 151.8 647.98989 151.15 650.7283 150.56597 653.3183 150.95929 655.7599 152.32999 659.9699 154.65 664.0699 157.15999 668.22988 159.55998 669.28988 160.16999 671.57986 158.55998 671.6199 157.20998 671.6799 154.53998 671.7099 151.85997 671.72988 149.20998 671.7498 146.55998 671.64987 143.84998 671.79989 141.20998 671.9086 140.1175 672.272 139.1175 672.8899 138.20998 674.0899 136.37998 675.6599 134.97998 678.0699 134.96997 680.3395 135.06475 682.09286 136.06475 683.3299 137.96997 685.4299 142.39997 685.9599 147.21997 686.8699 151.96997 687.08987 153.13997 689.6499 154.44997 690.6899 153.96997 693.5699 152.56998 696.3999 151.06998 699.3199 149.74997 701.27529 148.89493 703.27529 148.16159 705.3199 147.54998 707.54989 146.86998 711.4099 148.35997 712.4499 150.15998 713.5999 152.15998 713.5299 156.25998 712.1499 157.80997 711.0565 158.97148 709.8932 160.05815 708.6599 161.06996 707.4599 162.12996 706.17996 163.06996 704.9899 164.15996 704.6559 164.61965 704.38259 165.11299 704.17 165.64Z" fill="#fffd12"/>
<path transform="matrix(.07044439,-.02597683,.025979862,.070452619,119.83429,123.28769)" d="M711.06 453.71C711.4924 456.20216 710.749 458.27217 708.83 459.91999 705.28 463.12 701.45 465.99998 697.89 469.19999 697.42007 469.62 697.51 471.44999 698.02 472.02998 699.4803 473.55943 701.0703 474.93943 702.79006 476.16999 705.33 478.12 708.08 479.81 710.46 481.91999 711.55447 483.1007 712.31448 484.46739 712.74008 486.02 713.86007 489.15 711.22006 492.93 707.99008 492.75999 705.8568 492.68925 703.78018 492.30924 701.7601 491.61997 698.7601 490.50999 695.98007 488.90998 693.05007 487.61997 692.5289 487.39103 692.0171 487.4104 691.5147 487.67808 691.0123 487.94575 690.7108 488.35969 690.61007 488.91996 690.08 490.91996 689.98007 493.10997 689.50009 495.15995 689.06967 497.2422 688.43966 499.2622 687.61007 501.21995 686.6615 503.41468 684.9948 504.598 682.61007 504.76994 680.13009 505.01994 677.2601 503.00993 676.09 500.89994 674.17007 497.41993 675 493.53996 674.09 489.89994 673.72006 488.36994 671.99008 487.79994 670.32 488.78996 667.58 490.41996 664.89 492.15995 662.09 493.66996 659.95 494.82997 656.60006 493.06996 655.60006 490.56996 654.4089 487.8422 654.7422 485.31553 656.60006 482.98997 659.23007 479.63996 662.31008 476.63996 665.19009 473.48997 666.4211 471.91325 666.2278 470.53657 664.61007 469.35997 661.05007 467.01997 657.43008 464.76997 653.9 462.35997 651.9 461.01997 651.33 457.22996 652.60006 455.09996 653.87008 452.96995 657.27 451.43995 659.47006 452.09996 660.48806 452.4099 661.48806 452.7699 662.47006 453.17994 672.83 457.56996 674.53 458.17994 674.37008 446.23994 674.47439 444.63816 674.7444 443.06483 675.18008 441.51994 675.5201 439.86994 677.94009 438.03993 679.9601 437.81993 682.8401 437.50993 685.7201 438.9699 686.50009 441.3399 687.17007 443.3399 687.50009 445.4899 688.1401 447.5299 689.63009 452.3399 690.9501 454.22993 695.93008 451.3699 697.7812 450.29676 699.68789 449.3334 701.65 448.4799 702.61618 448.03709 703.6301 447.83628 704.6921 447.87748 705.7541 447.91865 706.7496 448.1974 707.67849 448.71369 708.6074 449.23 709.36978 449.92823 709.96548 450.80836 710.56118 451.6885 710.926 452.6557 711.06 453.71Z" fill="#fffd12"/>
<path transform="matrix(.07044439,-.02597683,.025979862,.070452619,119.83429,123.28769)" d="M647.23 906.66C647.01998 905.13998 646.70999 903.56997 646.61 901.98 646.45 899.17 647.74 896.81 649.26 894.6 650.78 892.38998 654.71 891.91 656.26 893.73 658 895.73 659.4 898 661.16006 899.95999 661.9463 900.7448 662.89297 901.0915 664 901 666.6 900.54 669.1 899.53 671.7 899 675.01 898.36 677.60006 901.86 676.77 905.16 675.41006 910.54 671.66006 914.43 668.77 918.87997 667.91006 920.22 668.24 922.43997 669.41006 923.19998 671.19009 924.35 672.9 925.6099 674.77 926.58999 678.07 928.31997 681.56 929.70999 684.77 931.58999 686.04006 932.32998 686.9 933.91 687.77 935.24 688.63217 936.69406 688.7733 938.2151 688.19369 939.80307 687.614 941.3909 686.5261 942.46328 684.93 943.02 683.4379 943.62026 681.88796 943.90359 680.27999 943.87 677.1523 943.4172 674.05899 942.7938 671 942 667.23 941.09 665.81 941.83 665.42 945 665.11 947.63 664.85 950.27 664.42 952.88 664.13998 954.49 661.48 956.55 659.69 956.62 657.52 956.71 655.27 956.46 653.94 954.56 652.44 952.41 651.44 949.92 649.94 947.77999 649.17098 946.98867 648.24429 946.6953 647.16 946.89999 645.16 947.58999 643.42 948.89999 641.44 949.68 638.64187 950.8231 636.2152 950.28646 634.16 948.07 632.266 945.7454 631.98269 943.2388 633.31 940.55 634.81 937.17 636.93 934.06 638.76 930.83 639.7319 928.5348 639.1952 926.6748 637.15 925.25 635.77 924.46 634.32 923.79 632.94 923 630.577 921.7734 628.30038 920.4034 626.11 918.89 624.31137 917.46896 623.4247 915.6123 623.45 913.32 623.39 911.32 625.11 908.76 626.92 908.54 628.9983 908.1255 631.0917 908.0255 633.2 908.24 636.83 908.91 640.36 910.13 643.94 911.08 645.09 911.39 647.27 909.53 647.29 908.28 647.23 907.78 647.23 907.25 647.23 906.66Z" fill="#fffd12"/>
<path transform="matrix(.07044439,-.02597683,.025979862,.070452619,119.83429,123.28769)" d="M382.38 648.56C381.07 647.86 379.93 647.56 379.25 646.82 376.59 644 375.66 640.32 374.55 636.73 374.12 635.35 371.72 634.42 370.55 635.07998 367.78 636.67 365.09999 638.43997 362.25 639.86996 359.40003 641.2999 355.39 638.6599 355.1 635.49996 354.9 633.32998 355.1 631.08999 356.53 629.4099 359.68 625.7899 363.02 622.3299 366.26 618.7999 367.5173 617.21609 367.33067 615.82608 365.7 614.62997 362.7 612.4199 359.59004 610.2999 356.64 607.99996 355.37629 606.99819 354.2896 605.8315 353.38 604.49996 351.64073 602.1779 351.25074 599.6479 352.21 596.9099 353.06999 594.36996 356.4 592.3599 358.55 593.3499 360.96 594.4499 363.25999 595.7799 365.62 596.9899 367.51 597.9899 369.41999 598.88998 371.33 599.81997 372.56999 600.42996 373.58 600.11996 373.93998 598.81997 374.65998 596.27999 375.11997 593.66 375.88999 591.13998 376.58 588.88998 378.44999 587.81997 380.62 587.33999 382.13999 586.99996 384.94999 588.76998 385.75 590.57998 386.36976 592.05038 386.8831 593.55709 387.29 595.1 388.88 600.74 388.85 600.72 394.80003 598.51998 396.75599 597.69357 398.77598 597.0769 400.86003 596.67 402.61317 596.4326 404.03648 597.0093 405.13 598.39999 406.58967 600.28298 406.77299 602.28298 405.68 604.39999 404.85569 605.77017 403.949 607.08346 402.96 608.33999 401.56999 609.94998 399.96 611.39999 398.50999 612.94998 397.73976 613.7497 397.35466 614.7047 397.35466 615.815 397.35466 616.9253 397.73976 617.88027 398.50999 618.67996 400.50999 620.4699 402.50999 622.18997 404.50999 623.9799 406.50999 625.7699 408.50999 627.5799 410.34999 629.4699 412.45997 631.5999 412.99 634.8399 411.69999 636.7699 409.84 639.5299 406.15 641.1299 403.38999 639.98989 400.43998 638.7699 397.68998 637.09988 394.78999 635.7499 393.84236 635.37509 392.859 635.1917 391.83998 635.1999 391.2583 635.1898 390.79164 635.41647 390.43998 635.8799 388.86 639.2499 387.53999 642.7599 385.75999 646.0199 385.13 647.21 383.44 647.81 382.38 648.56Z" fill="#fffd12"/>
<path transform="matrix(.07044439,-.02597683,.025979862,.070452619,119.83429,123.28769)" d="M801.23 452.2C798.88 452.47 797.63998 454.2 796.23 455.79 794.8654 457.41633 793.2921 458.80635 791.51 459.96003 789.4345 461.11518 787.41458 461.02519 785.45 459.69004 783.64 458.57005 782.12 455.96003 782.62 454.38005 783.88 450.32005 785.27 446.30006 786.62 442.26005 786.95 441.26005 785.41 438.75004 784.22 438.51005 782.12997 438.08006 779.99 437.86006 777.93 437.34004 776.38858 436.95597 774.9286 436.3693 773.55 435.58003 771.55 434.42 770.83 432.40003 770.77999 430.17 770.77999 428.32 772.56 425.72 774.27999 425.31004 776.33999 424.82005 778.45999 424.56004 780.54 424.13005 785.02999 423.19004 785.88998 421.92005 785.04 417.64006 784.62 415.56007 784.13998 413.48005 783.89999 411.38005 783.6328 409.00254 784.5195 407.1892 786.55996 405.94004 788.55996 404.61006 792.4799 404.99003 794.07998 406.60005 795.68 408.21006 796.82998 409.82005 798.22 411.41004 799.1663 412.68257 800.24636 413.82923 801.45999 414.85005 802.398 415.41105 803.37136 415.48106 804.37997 415.06004 806.16 413.95005 807.6099 412.31004 809.37997 411.11003 811.5695 409.60377 813.83956 408.2304 816.18997 406.99003 819.18997 405.39 822.67996 408.04 822.3599 411.72004 822.16799 413.8302 821.7913 415.90687 821.2299 417.95005 820.81997 419.48005 819.93997 420.87007 819.3999 422.37007 818.67996 424.37007 820.0299 426.53007 822.3999 427.12007 824.4599 427.65007 826.5999 427.88008 828.6399 428.48005 831.1699 429.22004 832.6999 431.75004 832.6399 434.67005 832.5799 437.59007 830.8699 440.21006 828.4599 440.67005 826.9099 441.00004 825.3199 441.18006 823.7399 441.41004 822.16 441.64 820.5999 441.84004 819.0399 442.10005 817.7599 442.32005 816.5899 444.44004 817.0399 445.93003 818.0399 448.93003 819.2299 451.93003 818.9699 455.24003 818.7871 456.89845 818.04226 458.2462 816.7353 459.2832 815.4282 460.32023 813.9465 460.73915 812.2899 460.54 810.10128 460.29585 808.2146 459.40916 806.62997 457.88 805.50997 456.75 804.62997 455.39 803.55996 454.21 802.8249 453.49174 802.0483 452.82176 801.23 452.2Z" fill="#fffd12"/>
<path transform="matrix(.07044439,-.02597683,.025979862,.070452619,119.83429,123.28769)" d="M540.05 1000.65C538.11 1000.15 536.57 999.65 535.05 999.38 533.2233 999.1659 531.96 999.90927 531.26 1001.61 530.62 1003.61 530.16006 1005.72 529.5 1007.74 528.35 1011.20999 525.04 1013.74 522.45 1013.01 518.8476 1012.18978 516.8476 1009.9431 516.45 1006.27 516.02 1003.63 515.89 1000.96 515.57 998.27 515.41006 996.97006 512.99 995.27 511.98 995.78 510.04 996.67007 508.14 997.65 506.2 998.54006 504.75 999.21 503.28 999.85006 501.79 1000.42007 500.30003 1000.99008 497.30003 999.77 496.11003 998.23007 494.79 996.5101 494.48 993.71 495.56004 992.23007 496.73716 990.4618 498.04383 988.79519 499.48005 987.23007 506.17005 980.57009 504.11006 980.66006 499.84004 975.73007 498.50044 974.079 497.32377 972.319 496.31004 970.45 494.11003 966.61 498.16004 962.89 501.50004 962.59 505.50004 962.23007 508.60005 964.66006 512.22006 965.31 513.32009 965.30728 514.1634 964.8406 514.75009 963.91 515.75009 961.47 516.2001 958.82998 517.10006 956.36 518.36007 952.89 524.10006 952.1 526.51 955.11 527.73849 956.83847 528.8385 958.6451 529.81 960.52999 530.9324 962.58816 532.6657 963.6115 535.01 963.6 537.15 963.6 539.29006 963.6 541.42 963.70999 542.47378 963.8599 543.4971 964.1266 544.49 964.50997 547.36 965.37997 548.82 970.35 546.66 972.50997 544.04 975.12997 541.1 977.4199 538.37997 979.94998 537.40567 980.9605 537.4823 981.88388 538.6099 982.72 540.2099 984.07998 542.11996 985.06997 543.69998 986.44998 545.3453 987.7895 546.7886 989.31948 548.02999 991.04 550.13998 994.17 548.02999 999.19998 544.39999 1000.04 542.85 1000.42 541.26 1000.49 540.05 1000.65Z" fill="#fffd12"/>
<path transform="matrix(.07044439,-.02597683,.025979862,.070452619,119.83429,123.28769)" d="M284.64 502.63C281.95 502.15 278.28004 501.48 274.64 500.84 273.81846 500.67018 273.06565 500.82814 272.3816 501.31388 271.69758 501.79963 271.30039 502.45835 271.19 503.29 270.31 506.92 269.54 510.58003 268.53 514.17 267.98963 515.66586 267.29963 517.0892 266.46 518.44 265.53 520.18 261.96 520.44 261.08 518.82 259.34 515.54 257.72999 512.19 256.08 508.82 255.74799 508.06108 255.18087 507.57847 254.3786 507.37223 253.57634 507.166 252.8468 507.31526 252.18999 507.82 249.24999 510.09 246.35999 512.45 243.31999 514.59 241.48999 515.87008 237.73999 515.03 236.01 513.13 234.90999 511.91 234.06999 510.38 234.79999 508.77003 235.80699 506.30427 237.09366 503.99427 238.65999 501.84004 241.30998 498.50004 244.32999 495.46003 247.27999 492.37004 248.27999 491.37004 247.92998 489.12004 246.48999 488.18003 244.71999 487.02003 242.76 486.18003 240.98999 485.00004 239.22235 483.8177 237.52568 482.54103 235.9 481.17005 234.30446 479.483 233.7878 477.513 234.34999 475.26005 235.23 472.85005 238.13999 470.69004 240.46999 470.78004 241.53369 470.7809 242.59035 470.86759 243.63999 471.04005 246.13999 471.50004 248.52999 473.56004 251.16999 471.69004 253.16999 470.29005 252.60999 467.79005 253.48999 465.92005 254.18115 464.49464 255.05449 463.19129 256.11 462.01005 257.27 460.66004 260.78 460.60005 262.05 461.79005 262.86528 462.46296 263.57527 463.23295 264.18 464.10005 265.53 466.30006 265.88 469.30006 268.88 470.10005 271.62 470.85005 274.1 469.59004 276.65 468.85005 278.17817 468.45463 279.72483 468.15464 281.29 467.95005 282.44 467.77006 284.19 470.15007 284.09 471.32005 283.76 475.32005 280.66999 477.87004 279.09 481.22004 278.38999 482.73005 278.58 484.86006 279.66999 485.60005 281.43 486.80006 283.16999 488.03004 285.00999 489.09004 287.83189 490.73194 290.13188 492.92195 291.90998 495.66004 292.90998 497.12004 291.98997 500.50004 290.33998 501.12004 289.85267 501.3407 289.35267 501.52738 288.83998 501.68003 287.77 502 286.72 502.21 284.64 502.63Z" fill="#fffd12"/>
<path transform="matrix(.07044439,-.02597683,.025979862,.070452619,119.83429,123.28769)" d="M606.61 239.66C606.3536 240.94112 605.93698 242.16777 605.36 243.34 604.01998 245.62 602.20999 247.62999 600.91 249.93 600.5978 250.98149 600.80117 251.9215 601.51998 252.75 604.01998 254.7 606.83999 256.23 609.33999 258.17 610.9537 259.5347 612.4003 261.05805 613.68 262.74003 615.0442 264.8004 614.9242 266.77043 613.32 268.65003 611.53 270.74003 609.49 272.36003 606.47006 271.7 603.88 271.12004 601.31008 270.13 598.7 270.05003 597.06057 270.30824 595.88058 271.1849 595.16006 272.68003 594.09 275.68003 593.81008 278.86003 593.00009 281.93003 592.4001 284.18003 590.54006 285.35005 588.4001 285.86003 586.0401 286.42 582.8601 284.45 582.2001 281.96003 581.54006 279.47004 581.2001 276.74003 580.61007 274.17 580.31008 272.89 579.31008 272.28 578.4 272.77003 576.07 274.01 573.9 275.55003 571.54006 276.77003 569.41006 277.83003 566.14 276.77003 564.36007 274.77003 562.9501 273.18003 562.28 270.31004 563.16006 268.86003 565.36007 265.22 567.65 261.63 569.89 258.02003 570.7457 256.37983 570.4424 254.99315 568.98007 253.86002 566.36007 252.04001 563.57009 250.44002 561.14 248.41002 560.04049 247.24839 559.3105 245.88838 558.95 244.33002 558.17 241.77002 560.28 238.61002 562.8 238.33002 564.36367 238.04036 565.93368 238.00035 567.51 238.21002 570.62 238.91002 573.63 240.00002 576.68 240.91002 577.85 241.25002 580.3 239.91002 580.57 238.79003 581.28 235.70003 581.77 232.53003 582.69 229.50003 583.84 225.74004 588.99 224.24004 591.82 226.66004 592.22006 227.00003 592.82 227.28003 593 227.72003 594.87 231.58003 598.4 232.34003 602.17 233.04004 605 233.53 606.78 236.3 606.61 239.66Z" fill="#fffd12"/>
<path transform="matrix(.07044439,-.02597683,.025979862,.070452619,119.83429,123.28769)" d="M869.31 583.73C869.81686 584.5667 870.4235 585.32339 871.13 586 872.42 586.93 873.99 587.49 875.26 588.43 877.44 590.06 879.54006 592.08999 879.26 594.97 878.87 598.69998 875.63 599.97 872.56 600.97 870.56 601.64999 868.46 601.97 866.44 602.61 865.0464 602.9441 864.5664 603.79409 865 605.16 865.4428 606.697 865.7162 608.26376 865.82 609.86 865.7098 611.45779 865.30648 612.9778 864.61 614.42 863.26 617.42 859.27999 618.47 856.39999 617.13998 853.29 615.72 851.91 612.62997 849.39999 610.66 847.98049 609.529 846.54049 609.5023 845.07998 610.57998 843.4143 611.90438 841.65768 613.09439 839.80996 614.14999 837.97439 615.0733 836.1995 614.96847 834.4855 613.8354 832.7714 612.70236 831.9796 611.11056 832.1099 609.05996 832.423 606.95358 832.8729 604.8769 833.4599 602.82998 833.9399 600.77999 833.6499 599.52999 832.3399 598.82998 830.0099 597.52999 827.5399 596.44998 825.3399 594.94998 822.2199 592.80996 822.9599 587.33999 826.5799 585.62997 828.51699 584.77456 830.51699 584.1079 832.5799 583.62997 838.9699 582.01998 839.1499 581.77999 837.6999 574.89999 837.3799 573.33999 836.9499 571.79 836.6999 570.20999 836.3799 567.89999 838.4499 564.80996 840.79989 563.92 843.14987 563.03 846.79989 563.8 848.0699 565.77999 849.2499 567.54 850.1899 569.45999 851.1899 571.32998 853.5899 575.85 854.60989 576.17996 858.35989 573.6 860.10989 572.38998 861.78988 571.06 863.6299 570.00997 864.61886 569.59768 865.6488 569.3777 866.7199 569.35 870.5799 568.88 874.17996 573.08999 872.7899 576.61 871.84 579 870.49 581.34 869.31 583.73Z" fill="#fffd12"/>
<path transform="matrix(.07044439,-.02597683,.025979862,.070452619,119.83429,123.28769)" d="M541.76 864.88C540.96 862.12 538.3 860.97006 536.62 858.97006 535.27 857.35006 533.62 855.68008 534.62 853.28 535.77096 849.78738 538.18429 847.984 541.86 847.87008 542.399 847.79849 542.9323 847.8284 543.45999 847.9601 546.99 849.1001 549.70999 848.25009 551.51998 844.87008 552.02926 843.93026 552.64926 843.07028 553.37997 842.29006 554.6043 841.1019 556.06436 840.6019 557.75997 840.79006 558.3116 840.7334 558.8349 840.8301 559.32998 841.08 563.48 844.33 568.38998 843.71 573.16 843.96 575.94998 844.10006 578.1 847.22006 577.06 849.69 575.84 852.6 574.34 855.39 572.96 858.23 574.04006 860.88 576.67007 862 578.49008 863.91 579.8739 865.5314 581.0439 867.29476 582 869.2 583.27 871.44 581.5 874.91006 578.81 875.38 576.12 875.85 573.48 875.91006 570.88 876.45 569.8169 876.7757 569.05026 877.4424 568.58 878.45 567.58 880.87 567.03 883.56 565.85006 885.9 564.25009 889.08 558.31008 889.44 556.06008 886.63 555.06008 885.38 554.3901 883.89 553.48007 882.57 552.8634 881.7188 552.1967 880.9088 551.48007 880.14 550.62008 879.14 549.69009 879.24 548.48007 879.69 546.5172 880.50546 544.49057 881.1054 542.4 881.49 539.58 881.93 535.88 877.49 536.93008 875.01 538.4 871.56 540.14 868.25 541.76 864.88Z" fill="#fffd12"/>
<path transform="matrix(.07044439,-.02597683,.025979862,.070452619,119.83429,123.28769)" d="M681.1 314.69C681.35 319.86003 677.69 324.08003 672.83999 324.21 668.18997 324.34 664.37997 320.1 664.38998 314.83 664.38998 310.96 667.43997 307.37 670.85 307.19999 676.31 306.94 680.89 310.28 681.1 314.69Z" fill="#fffd12"/>
<path transform="matrix(.07044439,-.02597683,.025979862,.070452619,119.83429,123.28769)" d="M353.49 209.53C355.65397 209.63512 357.47474 210.47989 358.95234 212.06432 360.42997 213.64875 361.14585 215.52397 361.09999 217.69 360.88999 221.27 357.39997 224.63 353.91999 224.6 351.75334 224.46125 349.93553 223.59255 348.46656 221.9939 346.9976 220.39525 346.2854 218.51062 346.33 216.34001 346.46168 214.44927 347.21418 212.85079 348.5875 211.54456 349.96086 210.23836 351.595 209.56684 353.49 209.53Z" fill="#fffd12"/>
<path transform="matrix(.07044439,-.02597683,.025979862,.070452619,119.83429,123.28769)" d="M330 203.61C330.06388 206.46955 328.91056 208.69954 326.54 210.3 324.69035 211.70203 322.72035 211.89868 320.63 210.89 319.23625 210.1892 318.0029 209.27252 316.93 208.14 313.66 204.59 313.86 200.37 317.25999 197.08 318.21797 196.18793 319.33348 195.58946 320.60655 195.2846 321.87956 194.97975 323.14515 195.00801 324.4033 195.36937 325.66145 195.73075 326.7491 196.37839 327.66633 197.31233 328.58354 198.24629 329.21144 199.34552 329.55 200.61 329.75996 201.60102 329.90995 202.60102 330 203.61Z" fill="#fffd12"/>
<path transform="matrix(.07044439,-.02597683,.025979862,.070452619,119.83429,123.28769)" d="M346.44 268.23C350.72 268.82 354.39 272.68003 354.44 276.75 354.47065 279.03935 353.5473 280.83937 351.67 282.15 348.24003 284.74 342.93003 283.57 340.67 279.8 338.23 275.8 339.40003 271.06999 343.45 268.97 344.41667 268.60209 345.41334 268.3554 346.44 268.23Z" fill="#fffd12"/>
<path transform="matrix(.07044439,-.02597683,.025979862,.070452619,119.83429,123.28769)" d="M340.72 500.42C341.09 503.06004 338.84 507.2 336.25 508.2 333.66 509.2 331.07 509.25 328.76 507.41 326.45 505.57 325.61003 501.89 326.89 498.67 327.83213 495.84614 329.7821 494.2661 332.74003 493.93003 336 493.54 340.24 497.05 340.72 500.42Z" fill="#fffd12"/>
<path transform="matrix(.07044439,-.02597683,.025979862,.070452619,119.83429,123.28769)" d="M296.73 399.24C294.8047 399.34596 293.07084 398.82029 291.52845 397.66304 289.9861 396.50584 288.9966 394.98814 288.56 393.11 287.74 390.06 289.18 386.91999 292.25 385.11 293.6982 384.19795 295.21488 384.0646 296.8 384.71 299.38883 385.72529 301.25883 387.49864 302.40998 390.03 304.33 393.94 301.23 399 296.73 399.24Z" fill="#fffd12"/>
<path transform="matrix(.07044439,-.02597683,.025979862,.070452619,119.83429,123.28769)" d="M583.31 479.83C583.261 482.09336 582.27767 483.8267 580.36 485.03 576.48 487.56 569.08999 485.51 568.36 479.53 568.07077 477.30555 568.7907 475.47886 570.51998 474.05 574.63998 471.18 581.18997 473.12998 582.61 476.93 582.903 477.88224 583.13638 478.8489 583.31 479.83Z" fill="#fffd12"/>
<path transform="matrix(.07044439,-.02597683,.025979862,.070452619,119.83429,123.28769)" d="M599.88 419.75C600.8776 419.96366 601.8443 420.27366 602.78 420.68 607.25 423.13999 607.37008 429.44 603.78 432.68 602.0147 434.09007 600.0814 434.38005 597.98007 433.55 595.35006 432.31999 594.2601 430.06999 593.91006 427.37 593.4056 424.46766 594.4056 422.241 596.91006 420.69 597.85769 420.24287 598.84768 419.92955 599.88 419.75Z" fill="#fffd12"/>
<path transform="matrix(.07044439,-.02597683,.025979862,.070452619,119.83429,123.28769)" d="M770 492C770.17 495 767.53 497.9 764.27 498.34 760.67007 498.84 757.55007 496.13999 756.83 491.91 756.35006 489.11003 759.23007 485.91 762.52 485.66 764.4222 485.5212 766.10067 486.0684 767.55557 487.3015 769.01046 488.5347 769.82528 490.10087 770 492Z" fill="#fffd12"/>
<path transform="matrix(.07044439,-.02597683,.025979862,.070452619,119.83429,123.28769)" d="M380 756.84C378.316 756.70986 376.95219 755.9807 375.90849 754.65267 374.86479 753.3247 374.4786 751.82717 374.75 750.16006 375.17 746.26 377.46 744.07 380.91 744.26 382.88844 744.3282 384.50657 745.12667 385.76438 746.6553 387.0222 748.1839 387.49406 749.9255 387.18 751.88 386.72 754.85 383.54 757 380 756.84Z" fill="#fffd12"/>
<path transform="matrix(.07044439,-.02597683,.025979862,.070452619,119.83429,123.28769)" d="M651.39 846.84C651.2133 848.7953 650.35928 850.3871 648.82778 851.6155 647.29629 852.8438 645.557 853.332 643.61 853.08 640.54 852.71 638.32 849.68 638.49 846.08 638.68 842.08 642.02 839.43 646.17 840.08 647.83 840.28237 649.171 841.0453 650.19308 842.36886 651.2152 843.69247 651.6142 845.18289 651.39 846.84Z" fill="#fffd12"/>
<path transform="matrix(.07044439,-.02597683,.025979862,.070452619,119.83429,123.28769)" d="M696.1 837.09C695.25997 840.5 691.94998 842.99008 689.24 842.25 687.64956 841.7826 686.4232 840.84097 685.5611 839.42507 684.6989 838.0092 684.42526 836.4875 684.74 834.86 685.26 831.86 688.74 830.12 692.3 831.01 693.64077 831.3572 694.6781 832.118 695.4122 833.29238 696.14627 834.46688 696.3755 835.7327 696.1 837.09Z" fill="#fffd12"/>
<path transform="matrix(.07044439,-.02597683,.025979862,.070452619,119.83429,123.28769)" d="M519.35 816.05C519.35836 817.64608 518.86758 819.0701 517.87759 820.32217 516.8875 821.57418 515.615 822.38009 514.06 822.74 511.41999 823.3 508.13999 820.56 507.62 817.36 507.36125 815.744 507.74943 814.3023 508.7846 813.0349 509.8198 811.7674 511.1549 811.0991 512.79 811.02999 516.21 810.72 519.22 813 519.35 816.05Z" fill="#fffd12"/>
<path transform="matrix(.07044439,-.02597683,.025979862,.070452619,119.83429,123.28769)" d="M587.23 949.3C583.88 949.18 581.58999 946.82 581.35 943.24 581.08999 939.39999 584.35 936.61 588.54 937.02999 591.55508 937.3593 593.2717 939.026 593.69 942.02999 593.91 946.06 590.91 949.42 587.23 949.3Z" fill="#fffd12"/>
<path transform="matrix(.07044439,-.02597683,.025979862,.070452619,119.83429,123.28769)" d="M586.38 393.27C585.77 397.75 580.38 400.56 576.81 398.27 574.47 396.78999 573.72 392.62998 575.25 389.62 576.87277 386.93473 579.15609 386.1347 582.1 387.22 584.7 388.2 586.68 391 586.38 393.27Z" fill="#fffd12"/>
<path transform="matrix(.07044439,-.02597683,.025979862,.070452619,119.83429,123.28769)" d="M720.75 405C716.94 405 713.53 401.38 713.93 397.81 714.27 394.81 717.36 392.29 720.67 392.28 723.98 392.27 726.24 394.94 726.29 398.61 726.33999 402.27998 723.9 405.06 720.75 405Z" fill="#fffd12"/>
<path transform="matrix(.07044439,-.02597683,.025979862,.070452619,119.83429,123.28769)" d="M268.72 408.75C268.89 412.44 266.52 415.28 263.33 415.2 259.22999 415.1 256.00999 411.87004 256.33 408.2 256.62998 404.93003 259.33 402.63 262.87998 402.63 266.42997 402.63 268.55 405 268.72 408.75Z" fill="#fffd12"/>
<path transform="matrix(.07044439,-.02597683,.025979862,.070452619,119.83429,123.28769)" d="M349.58 547.44C349.65745 549.2403 349.0318 550.749 347.70307 551.9662 346.3743 553.1834 344.8166 553.6747 343.03 553.44 338.25 552.96 335.85 548.21 338.38 544.23 338.66789 543.78829 338.98454 543.3682 339.33003 542.97 341.2702 540.5861 343.63356 540.0428 346.42 541.33999 348.41 542.43 349.33 544.26 349.58 547.44Z" fill="#fffd12"/>
<path transform="matrix(.07044439,-.02597683,.025979862,.070452619,119.83429,123.28769)" d="M786.23 508.15C782.89999 508.15 780.62 505.47 780.64999 501.71 780.67996 497.94999 783.30996 495.52 786.73 495.96 788.3915 496.10215 789.78787 496.7858 790.919 498.01097 792.05026 499.23616 792.62057 500.6825 792.63 502.35 792.5411 504.03163 791.87277 505.43785 790.625 506.5686 789.3772 507.6994 787.9122 508.22654 786.23 508.15Z" fill="#fffd12"/>
<path transform="matrix(.07044439,-.02597683,.025979862,.070452619,119.83429,123.28769)" d="M385.73 546.69C382.85 546.45 380.53 543.11 380.85 539.69 380.96745 538.01669 381.6969 536.67648 383.0384 535.6693 384.37986 534.66226 385.8704 534.3358 387.51 534.69 390.79 535.34 393.35 538.69 392.71003 541.52 392.30476 543.0989 391.4472 544.37338 390.1374 545.3435 388.82756 546.31369 387.35844 546.7625 385.73 546.69Z" fill="#fffd12"/>
<path transform="matrix(.07044439,-.02597683,.025979862,.070452619,119.83429,123.28769)" d="M590.1 971.48C586.83999 970.86 584.50997 967.48 585.3 964.48 585.75106 962.8819 586.688 961.6548 588.1109 960.79879 589.53378 959.94277 591.05679 959.6898 592.68 960.04 594.0397 960.3471 595.1061 961.08059 595.87936 962.2404 596.6526 963.40029 596.91946 964.6668 596.68 966.04 596.14 969.41 593 972 590.1 971.48Z" fill="#fffd12"/>
<path transform="matrix(.07044439,-.02597683,.025979862,.070452619,119.83429,123.28769)" d="M437.87 920.77C437.50828 923.74929 435.8683 925.5893 432.94999 926.29006 431.24998 926.72006 428.59 925.54006 427.49 923.86007 425.8682 921.35128 425.9482 918.89797 427.72999 916.50009 428.80888 915.16659 430.20219 914.5799 431.90998 914.74008 435.25 914.76 438.14 917.75 437.87 920.77Z" fill="#fffd12"/>
<path transform="matrix(.07044439,-.02597683,.025979862,.070452619,119.83429,123.28769)" d="M636.67 261.8C636.20999 258.87998 639.13998 255.43999 642.23 255.29 645.32 255.14 648.01998 257.94 648.23 261.38 648.28927 262.74577 647.8852 263.9569 647.0178 265.01347 646.15048 266.07 645.04116 266.70219 643.69 266.91 642.045 267.05848 640.55477 266.64668 639.21939 265.67463 637.88406 264.70256 637.03427 263.411 636.67 261.8Z" fill="#fffd12"/>
<path transform="matrix(.07044439,-.02597683,.025979862,.070452619,119.83429,123.28769)" d="M490.59 851.61C490.42073 853.0222 489.81837 854.2159 488.7829 855.191 487.74748 856.1661 486.51985 856.69577 485.1 856.77999 482.828 857.01199 481.01469 856.2086 479.66 854.37 478.66 853.08 479.09 850.14 480.41 848.54 481.0785 847.7478 481.82518 847.0378 482.65 846.41 483.7441 845.5888 484.96379 845.3024 486.309 845.5508 487.65425 845.79916 488.69126 846.5022 489.41999 847.66 489.96958 848.9293 490.35957 850.24606 490.59 851.61Z" fill="#fffd12"/>
<path transform="matrix(.07044439,-.02597683,.025979862,.070452619,119.83429,123.28769)" d="M686.67 266.14C685.98 267.19 685.42 268.86003 684.26998 269.6 681.77627 271.268 679.3529 271.17134 676.99996 269.31 675.9393 268.47404 675.33547 267.38478 675.1884 266.04228 675.04147 264.69978 675.39529 263.50569 676.24996 262.46 678.6699 259.65 683.69998 259.81 685.7199 262.87 686.1836 263.9173 686.5003 265.0073 686.67 266.14Z" fill="#fffd12"/>
<path transform="matrix(.07044439,-.02597683,.025979862,.070452619,119.83429,123.28769)" d="M474.52 802.15C475.25999 802.75 476.84 803.49008 477.52 804.73007 479.16 807.65 478.06 811.89 475.31 813.11007 473.78 813.7063 472.25 813.7063 470.72 813.11007 467.96 811.9 467.05 807.71 468.5 804.69009 469.41 802.89 471.59 801.8 474.52 802.15Z" fill="#fffd12"/>
<path transform="matrix(.07044439,-.02597683,.025979862,.070452619,119.83429,123.28769)" d="M486.66 553.42C489.63725 553.4315 491.6006 554.84817 492.55003 557.67 493.27415 559.2849 493.0208 560.7282 491.79 562 491.08079 562.741 490.30744 563.4077 489.47 564 487.6263 565.49459 485.68299 565.6379 483.64 564.43 481.1909 562.7973 480.2842 560.54397 480.92 557.67 481.73255 554.76657 483.64588 553.34988 486.66 553.42Z" fill="#fffd12"/>
<path transform="matrix(.07044439,-.02597683,.025979862,.070452619,119.83429,123.28769)" d="M463.52 589.43C464.83164 589.58139 465.91358 590.16128 466.7658 591.1697 467.61808 592.1781 468.0095 593.34158 467.94 594.66 467.81 597.19 465.62 599.87 463.44 600.14999 460.83003 600.49 457.91 596.99 458.23 593.88998 458.72898 590.90359 460.4923 589.41696 463.52 589.43Z" fill="#fffd12"/>
<path transform="matrix(.07044439,-.02597683,.025979862,.070452619,119.83429,123.28769)" d="M639.1 990.29C639.41 993.41 636.82998 996.57 634.62 996.47 632.41006 996.36996 629.71 992.82998 630.62 990.68 631.0434 989.69888 631.6534 988.85226 632.45 988.14 633.65 987.03 635.34 986.22006 636.74 987.14 637.88 987.87 638.52 989.49 639.1 990.29Z" fill="#fffd12"/>
<path transform="matrix(.07044439,-.02597683,.025979862,.070452619,119.83429,123.28769)" d="M462 664.74C461.85 666.89999 459.15 668.89 457.68 667.81 456.84059 667.15847 456.28724 666.3184 456.02 665.29 455.65 663.66 456.53999 661.74 457.87 661.39999 458.89646 661.20596 459.82978 661.41928 460.66999 662.04 461.33 662.63 461.53 663.81 462 664.74Z" fill="#fffd12"/>
</g>
</g>
</g>
</g>
</g>
<g clip-path="url(#clip_9)">
<text fill="#8b0dd8" xml:space="preserve" transform="matrix(.75 0 0 .75 27.978535 223.37949)" font-size="34.26" font-family="CinzelDecorative" font-weight="bold"><tspan y="33" x=".984375 37.016355 70.000087 98.42856 131.4123 156.72402 179.39849 190.83895 217.62342 248.62064 274.3091 307.29286 335.7213 351.81977 384.32398">Morops Tutoring</tspan></text>
<text fill="#8b0dd8" xml:space="preserve" transform="matrix(.75 0 0 .75 27.978535 223.37949)" font-size="34.26" font-family="CinzelDecorative" font-weight="bold"><tspan y="33" x="415.82814"> </tspan></text>
<text fill="#8b0dd8" xml:space="preserve" transform="matrix(.75 0 0 .75 78.60994 250.35987)" font-size="24.26" font-family="Lustria"><tspan y="24" x="69.3125 91.14094 112.14488 133.97333 156.38376 176.19947 203.92067">ACADEMY</tspan></text>
</g>
</svg>
