<?xml version="1.0" encoding="UTF-8"?>
<svg version="1.1" viewBox="0 0 900 900" width="225" height="225" xmlns="http://www.w3.org/2000/svg">
<path transform="translate(0)" d="m0 0h900v900h-900z" fill="#FDFDFD"/>
<path transform="translate(570,145)" d="m0 0 10 1 6 4 3 5 1 4-1 13-5 18-8 21 1 7 12 23 7 19 5 23 1 9v23l-1 10v21l3 15 5 12 9 14 3 6v6l-6 4-13 5-1 3 2 12v5l-2 3h-2l-1 3h-2l-2 4-8 21-3 9v19l-3 8-5 5-5 2-17-1-41-7h-11l-11 4-6 4-6 9-2 7v13l6 21 1 3-5-2-10-12-6-13-2-6-1-11 2-11 5-13 8-14 10-15 28-38 13-18 9-15 8-16 7-19 4-16 2-14v-23l-3-17-6-18-9-17-12-16-7-7-15-11-10-6-5 1-4 2-3 5-6 6v3l9 5 9 7 12 12 10 15 7 16 4 15 1 7v19l-5 21-8 17-9 13-6 7-8 7-11 8-16 8-13 3h-3l1-4h2l4-8 5-5 4-6h2l2-5 3-5h2v-2l15-5 7-5 5-8 2-9v-7l-3-9-6-8-10-5-5-1h-9l-11 4-7 7-4 8-1 6v10l-4 6-11 14-10 11-7 8-9 10-19 19-22 18-15 10-17 8-10 3-9-1-6-7v-8l5-17 13-33 9-16 3-7v-8l-8-15-5-13-4-16-1-7v-27l5-25 8-21 8-14 10-13 13-14h2v-2l14-10 16-9 15-6 15-3 8-1h46l-2 4-12 11-8 7-11 9-7 3-19 2-17 5-16 8-13 9-12 11-10 13-8 13-6 14-3 11v4l8-19 10-16 7-8 8-7 14-10 16-7 18-4h6l-3 5-12 13-7 8-12 13-4 5-17 7-6 5-4 6-2 7v11l3 9 7 8 9 4h17l10-5 6-8 3-7h2l1-17 4-6 8-8 7-8 16-16 7-8 25-25 4-5 5-4 17-17h2v-2l6-4 5-5 11-8 18-10 13-5z" fill="#2E3898"/>
<path transform="translate(295,562)" d="m0 0h74l6 3 5 6 1 5v17l-1 1h-17l-1-1-1-10-1-2h-62v54h16l47-1 1-13 1-1h18v19l-2 7-5 5-5 2-14 1h-48l-14-1-7-3-5-5-3-5-1-10v-15l1-40 4-6 6-5z" fill="#313C9B"/>
<path transform="translate(559,562)" d="m0 0h26l3 3 14 28v6l-5 1 1 10 9 1v-2l-4-1-2-2 1-6 5-2 5 1 1 1v6l-3 4 3 5 8 16 11 21v1l-21 1-4-4-6-12-45-2 2-3 32-14-1-4-15-30-1-3h-3l-1 5-11 22-10 19-9 17-4 8h-23l9-19 12-23 17-33 8-15z" fill="#303A9A"/>
<path transform="translate(569,127)" d="m0 0h9v3l-21 9-19 10-17 11-11 8-12 9-13 10-10 9-16 15-12 11-7 8-12 12-7 8-8 9-14 18-1 8v7l-3 6-6 5-2 1h-8l-5-2-6-7-1-8 3-7 7-6 11-6 7-7 7-8 9-10 7-8 12-13 32-32 8-7 13-11 16-12 14-9 10-6 23-11 15-5z" fill="#00A5FE"/>
<path transform="translate(388,562)" d="m0 0h22l5 4 9 11 9 10 11 14 12 14 8 10 11 13 10 13v2l-21 1-5-5-11-12-8-10-1-3-4 1-9 11-9 10-6 7h-23l2-5 9-10 9-11 12-14 3-3-1-5-10-11-9-11-11-13-4-6z" fill="#303A9A"/>
<path transform="translate(473,324)" d="m0 0 7 1 5 4 3 6v10l-5 6-10 6-14 15-10 13-11 12-14 15-8 8-8 7-10 9-11 8-9 6-12 6-16 5-15 3h-14l-2-1 1-3 17-4 24-10 15-9 11-9 10-8 14-14h2l2-4h2l2-4 13-13 7-8 12-15 7-10 1-3 1-16 4-5 5-3z" fill="#00A5FE"/>
<path transform="translate(343,371)" d="m0 0 4 1 18 13 18 12 5 5-10 9-11 9-10 7-19 10-6 2h-8l-5-5-1-6 3-11 9-21z" fill="#FEFEFE"/>
<path transform="translate(491,562)" d="m0 0h18l1 1v90l-1 1h-17l-2-1v-90z" fill="#343F9C"/>
<path transform="translate(566,156)" d="m0 0h9l5 5 1 3v8l-6 23-4 12h-2v-2l-4-2-10-9-17-13-9-7 4-4 23-11z" fill="#FEFEFE"/>
<path transform="translate(549,100)" d="m0 0h5l12 9 10 9 1 2-18 4-20 7-6 2h-5l-15-13-5-4v-2l33-12z" fill="#7590C9"/>
<path transform="translate(484,122)" d="m0 0h5l12 10 8 6-4 4-19 11-7 3-6 1-5-3-14-11 2-4 9-6 12-7z" fill="#87DAFD"/>
<path transform="translate(457,100)" d="m0 0h5l13 11 5 5-8 5-23 13-5-1-12-11-4-5 15-9z" fill="#7590C9"/>
<path transform="translate(408,129)" d="m0 0 5 1 8 7 7 7-2 4-15 9-8 6-5-1-14-14 1-3 16-11z" fill="#313B9A"/>
<path transform="translate(387,107)" d="m0 0 4 2 13 13-2 4-10 6-12 9-5-2-13-13 5-5 16-12z" fill="#87DAFD"/>
<path transform="translate(462,563)" d="m0 0h23l-2 4-11 12-11 14-6 7-5-2v-2h-2v-2h-2l-3-4 1-5 11-13z" fill="#00A5FE"/>
<path transform="translate(347,139)" d="m0 0 4 1 13 13-5 5-10 9-6 5-4-2-7-7-4-5 2-4 13-12z" fill="#323D9B"/>
<path transform="translate(627,579)" d="m0 0h21v22h-22v-21z" fill="#313B9A"/>
<path transform="translate(314,172)" d="m0 0 5 1 9 11-2 4-15 15-5-5-6-7 1-5 7-8z" fill="#87DAFD"/>
<path transform="translate(327,120)" d="m0 0 6 2 5 5 4 5-2 4-9 6-5 5-5 2-6-8-3-2 1-5z" fill="#87DAFD"/>
<path transform="translate(299,152)" d="m0 0 4 1 7 9v2h2l-1 4-8 8-6 7-4-1-9-12 6-8z" fill="#323C9B"/>
<path transform="translate(331,192)" d="m0 0 4 1 8 9-1 4-7 8-5 5-3 2-4-1-7-9 1-5 6-7z" fill="#87DAFD"/>
<path transform="translate(301,222)" d="m0 0 4 2 7 9-1 5-7 7-6 8-3-1-1-4h-2l-1-3-3-2 1-4 5-7 5-5z" fill="#37429E"/>
<path transform="translate(314,241)" d="m0 0 4 2 5 7v5l-9 10-4 5-4-2-5-6v-5l10-12z" fill="#87DAFD"/>
<path transform="translate(276,187)" d="m0 0 3 1 7 11-4 7-8 11-3-1-6-9 1-6 8-12z" fill="#323C9B"/>
<path transform="translate(496,531)" d="m0 0h10l5 6 1 4-2 5-6 5h-7l-5-4-2-4 1-7z" fill="#00A5FE"/>
<path transform="translate(288,273)" d="m0 0 4 4 2 4v6l-9 15-4 1-4-7 1-6 9-16z" fill="#87DAFD"/>
<path transform="translate(267,240)" d="m0 0 5 5 3 6-1 4-8 16-3-1-4-7 1-6z" fill="#738EC8"/>
<path transform="translate(257,225)" d="m0 0 4 2 3 7-1 6-5 13-3 2-3-3-2-5 1-7 5-14z" fill="#87DAFD"/>
<path transform="translate(434,151)" d="m0 0 6 3 5 5 35 1-1 2h-46l-17 2 4-3 3-3h2l1-3z" fill="#80C0EB"/>
<path transform="translate(290,208)" d="m0 0 3 1 2 3v6l-8 13-4 1-4-5v-3h2l2-5 3-7z" fill="#87DAFD"/>
<path transform="translate(277,258)" d="m0 0 4 2 2 4v6l-9 14-4-2v-8l6-11z" fill="#87DAFD"/>
<path transform="translate(621,553)" d="m0 0h10v15h-10l-2-2v-11z" fill="#239EED"/>
<path transform="translate(594,558)" d="m0 0h11l1 1v11h-12l-1-10z" fill="#35419D"/>
<path transform="translate(389,664)" d="m0 0h7l3 1v10l-5 3-5-1-1-4v-8z" fill="#5568B3"/>
<path transform="translate(301,222)" d="m0 0 4 2 7 9-1 5-6 5 1-4-5-2-3 2-2-2 2-3 1-4 5-1 1-1-1-3-4-1z" fill="#7696CD"/>
<path transform="translate(510,178)" d="m0 0m-2 1 2 1-2 1zm-2 2 2 1-58 58v-3l30-30 4-5 5-4 5-5z" fill="#5064B1"/>
<path transform="translate(607,577)" d="m0 0h7l2 2v8l-6 2-5-2v-9z" fill="#698FCB"/>
<path transform="translate(622,609)" d="m0 0h7l4 4-1 5-2 2h-7l-2-2v-8z" fill="#87DAFD"/>
<path transform="translate(607,598)" d="m0 0 5 1 1 1v6l-5 6-3-1h2v-2l-4-1-2-2 1-6z" fill="#3E4CA3"/>
<path transform="translate(468,201)" d="m0 0 2 1-42 42v-3l17-17 7-8h2l1-3 8-7z" fill="#ACE5FD"/>
<path transform="translate(509,667)" d="m0 0 4 1-2 5-2 4-8 1-3-2 1-7 1-1h5v4l-3 1 1 2 3-2 2-5z" fill="#728CC7"/>
<path transform="translate(628,554)" d="m0 0h3v14h-10l-1-1v-11l3-1 2 11 4-3z" fill="#38449F"/>
<path transform="translate(414,667)" d="m0 0h4v7l2-5h3l-1 6-4 4-4-1-1-10z" fill="#667EBF"/>
<path transform="translate(597,599)" d="m0 0 4 1 1 3 1 4 4 2v2l-5 1-4-2-2-10z" fill="#738DC7"/>
<path transform="translate(451,667)" d="m0 0 4 1v9l-5 1-4-2v-2l3-2z" fill="#6179BD"/>
<path transform="translate(623,667)" d="m0 0h9l2 5v4l-3-1-2-6h-2l-2 7h-2v-5l-3 1 1-4z" fill="#708AC6"/>
<path transform="translate(375,667)" d="m0 0h4v11l-5 1-1-2 1-9z" fill="#4C5DAD"/>
<path transform="translate(296,664)" d="m0 0h3l1 5-1 1-1 7-5 1 2-13z" fill="#6076BA"/>
<path transform="translate(582,667)" d="m0 0h4l1 2v8l-6 1-1-2 2-1z" fill="#4E5FAE"/>
<path transform="translate(438,665)" d="m0 0h4l1 13-4-1-2-11z" fill="#7590C9"/>
<path transform="translate(283,664)" d="m0 0h4l3 7v5l-4-1-2-6z" fill="#5B6FB7"/>
<path transform="translate(391,666)" d="m0 0 5 1 1 3-2 5h-4z" fill="#FEFEFE"/>
<path transform="translate(324,667)" d="m0 0 4 1 1 2-3 3-1 4h-5l3-9z" fill="#667FC0"/>
<path transform="translate(518,668)" d="m0 0 5 1-1 6-1 2-4-1v-7z" fill="#738CC6"/>
<path transform="translate(546,667)" d="m0 0h4v10l-4 1z" fill="#7590C9"/>
<path transform="translate(593,665)" d="m0 0 4 1v11h-3l-1-5z" fill="#5062B0"/>
<path transform="translate(460,664)" d="m0 0h3l1 13-4 1z" fill="#4858AA"/>
<path transform="translate(557,667)" d="m0 0 5 1-1 4h-2l-1 4h-3v-6z" fill="#718BC6"/>
<path transform="translate(525,667)" d="m0 0 4 1 1 6-1 3-5 1-1-2 2-1z" fill="#667DBF"/>
<path transform="translate(315,668)" d="m0 0h4l-1 10-4-1v-8z" fill="#6A83C2"/>
<path transform="translate(536,664)" d="m0 0 4 1-2 11h-2l-1-2v-8z" fill="#6B84C2"/>
<path transform="translate(427,666)" d="m0 0 3 1 1 10-5 1z" fill="#7590C9"/>
<path transform="translate(571,667)" d="m0 0 4 1 1 5 3 1-2 2h-4z" fill="#5D72B8"/>
<path transform="translate(477,664)" d="m0 0h5l-2 12-2 1z" fill="#6E88C4"/>
<path transform="translate(500,668)" d="m0 0h5v4l-3 1-1 3h-3l1-7z" fill="#7086C3"/>
<path transform="translate(613,667)" d="m0 0h4v9l1 2-4-1-1-1z" fill="#5B70B7"/>
<path transform="translate(594,558)" d="m0 0h11v1h-8v3h-2v7l2 1h-3l-1-10z" fill="#7590C9"/>
<path transform="translate(567,667)" d="m0 0h3l-1 10-3-1-1-7z" fill="#6177BB"/>
<path transform="translate(604,666)" d="m0 0h2l1 2v9l-3 1z" fill="#5E73B9"/>
<path transform="translate(333,668)" d="m0 0h4v10l-4-2z" fill="#6279BC"/>
<path transform="translate(279,664)" d="m0 0h2v10l-2 2-1-1v-10z" fill="#6F8CC7"/>
<path transform="translate(300,225)" d="m0 0h4l3 5h-7l-3 1 2-4z" fill="#2E3798"/>
<path transform="translate(489,667)" d="m0 0 5 1-3 8h-2z" fill="#6981C0"/>
<path transform="translate(621,553)" d="m0 0h10v1l-6 1-1 3-1-3-2 1-1 10h-1v-11z" fill="#7297CF"/>
<path transform="translate(365,667)" d="m0 0 5 1 1 3-3 5h-2v-6z" fill="#5F74BA"/>
<path transform="translate(628,554)" d="m0 0h3v13l-4-1 2-3z" fill="#2C3597"/>
<path transform="translate(405,666)" d="m0 0h2l1 11-3 1z" fill="#4757A9"/>
<path transform="translate(339,667)" d="m0 0 4 2-1 8-4-1 1-5z" fill="#657CBE"/>
<path transform="translate(630,667)" d="m0 0 3 1 1 8-3-1-2-4z" fill="#728CC7"/>
<path transform="translate(599,606)" d="m0 0 8 3v2l-5 1-3-2z" fill="#FEFEFE"/>
<path transform="translate(357,668)" d="m0 0 3 1-2 8h-4z" fill="#6F89C5"/>
<path transform="translate(265,263)" d="m0 0 2 2-1 6-3-1-1-5h3z" fill="#4554A8"/>
</svg>
