<?xml version="1.0" encoding="UTF-8"?>
<svg version="1.1" viewBox="0 0 2048 1154" width="630" height="355" xmlns="http://www.w3.org/2000/svg">
<path transform="translate(551,196)" d="m0 0h9l9 4 6 7 3 10-2 11-8 9-7 3-7 1-3 10v4l6 4 5 6 2 6v8l-1 3 14 8 19 10-2-18-1-2-11-4-6-5-4-9v-10l5-10 8-6 3-1h12l8 4 6 9 2 10 2 2 17 5-1-2v-9l-3 2-7-1-4-5 1-6 3-4 5-1 5 3 2 4v4l4-2h8l5 4 1 2v9l-4 4h-2l1 2 11 3-2-4v-8l4-7 7-4h8l6 3 4 5 1 2v10l-4 6-4 4h5l6-9 7-6 7-3 6-1h8l9 2 11 7 6 9 2 5 1 13-2 9-5 9-7 6-4 2 4 17 4 10h46l1-6 4-6 6-5 9-3 10 2 6 4 6 7 2 5v9l-4 9-8 7-8 3v9l8 5 5 7 2 7v7l-5 10-5 5-8 3h-8l-7-2-8-7-3-8v-10l3-7 6-7 8-3 4-1 1-9-8-3-7-8-2-5v-3l-27 1 9 7 6 7 4 9 1 12-3 10-6 9-10 7-11 3h-7l-13-4-8-6-5-8-3-9v-12l4-10 6-8 8-6 2-1h-17l-2 8-6 8-9 5h-7l-5 16v3l8 6 6 12 1 8 38 6 14 2 8-7h11l6 4 3 5 1 7 11 3 30 9 8 3-3-6v-6l5-6 2-1h8l5 4 1 2v9l-7 7 4-1 5-4 2-1h9l7 4 4 8-1 9-6 7-5 2-9-1-2-1-11 9-12 11-11 9-10 10-6 5h11l10 5 6 7 2 6 7-5h2l-4-14v-9l2-9 6-9 7-6 9-4 5-1h8l10 3 9 6 7 10 3 12-1 10-4 9-6 8-10 6 2 12 9 3 5 6 2 5-1 7-5 7-5 3v4l14 2 6 4 6 9 2 6-1 8-4 8-7 6-6 2h-10l-8-3-6-7-2-5v-14l3-6 6-7-1-7-6-3-5-6-1-10 4-7 4-4-1-11h-11l-10-3-9-6-5 2-9 7-4 8-8 7-6 2-8 1-11 8v2l5-1 9-5 9-2 9 1 10 4 8 6 6 10 2 7v10l-3 10-6 9-6 5-7 3h-8l3 3 6 4h5l8-5 3-1h9l9 4 7 8 2 7v7l-2 9 9 8v2l5-1h11l6 4 3 5 1 7-3 7-5 5-2 1h-15l-8 7-8 8-8 7 1 10-4 8-5 4-2 1h-10l-4-1 8 10 4 8 1 3v15l-4 9-4 6-8 7-9 3h-15l-10-4-8-7-6-11-1-4v-13l3-9 7-9-1-35-5-3-5-1-2 5-13 21-21 35 2 4 6 8 3 8 1 9-2 9-5 9-5 5-4 2 5 9 7 9h17l8 5 4 5 3 8v7l-4 10-7 6-5 2h-13l-9-5-6-10-1-6-13-1-6 9-5 4-5 5-39 1 4 7-1 7-7 6-8-1-4-4-2-6-6 2-1 2 6 2 4 6 1 8-3 7-5 5-3 1h-9l-7-4-3-8 1-7h-5l2 9v11l-4 11-7 8-6 5-8 3-10 1-10-2-7-4-5-4-5-7-3-7-1-5v-10l3-9 6-8 7-6 10-4h14l10 4 5 3 4-2 5-6 5-4-20-1-65-1-2 10-6 9-7 6-11 4-7 1-14-3-10-7-6-10-2-5v-16l4-9 4-6 7-6 13-4h9l10 3 9 6 6 9 4 10 5 2-5-8-2-11 3-10 6-7 9-4h7l9 3 6 5 4 7 1 4v7l-4 10-3 3h18l-2-5v-8l4-8 8-5h9l6 3 5 6 1 4v9l-3 6 9-1 9-7 12-12 8-7-8-3-20-6-5 6-4 1-7-3-1-9-4-2h-5l-7 6-4 1h-8l-6-3-5-6-1-3v-9l5-8 8-4h7l8 4 4 6 2 8 32 10 23 7h4l1-2-10-3-5-5-2-4v-11l4-6 5-4 10-1h5l14-25 1-6-8-11-9-12-6-7-4-3-2-5h-6v9l-4 7-7 4-8 1-9-4-4-6-1-5-11 1-25 4-7 10-13 18-5 7 2 5 4 9v13l-4 9-8 7-10 4h-7l-10-4-6-5h-5l-35 20-15 8-1 11-3 5-7 5h-12l-6-4-4-6-12-2-10-2-1 6-1 5h2l17 17 7-1 3-1h11l8 4 7 8 2 8-1 9-2 4 1 4 5 7 4-1 10-2 8 2 8 5 5 8 1 9-2 8-4 6-5 4-7 2h-10l-7-3-5-5-4-8v-11l3-7-1-4-7-6-7 3h-11l-8-4-6-7-2-4v-14l3-6-4-5-16-14-1-2-5 1-6 2h-7l-8-3-7-6-3-8v-11l1-4-4-3-4 1-11 9 4 9 2 13-3 12-6 9-8 6-6 3-5 1h-11l-9-3-9-6-7-11-2-6v-13l4-11 7-8 8-5 9-3h10l7 1 6-14-1-4-15-12-6-3-8 6-10 3h-12l-11-4-7-6-6-10-2-8v-9l2-9 6-8-2-4-9-10-22-24-9-10-7-8-11-12-13-15-4-2-8 5v2l9 5 4 5 1 3v7l-2 5v3l9 3 3 4 1 7-3 5-4 3-1 16v15l3 3v7l6 9 7 9v2l12-2 9 3 6 4 4 7 2 6-1 10-5 8-6 5-6 2h-10l-8-4-6-7-2-5v-12l4-8 1-5-9-12-4-5-6-1-5-6 1-6 4-4h2v-10l1-20-5-2-3-6 2-10-10 1-6-3-4-6-1-3v-8l4-6 5-5 1-2-13-1-9-4-8-7-6-10-2-11 2-11 4-8 9-9 6-3-2-12h-7l-8-6-2-4v-9l3-6 5-5v-6h-7l-9-4-7-8-2-6v-9l5-10 8-6 3-1h13l9 5 6 10 1 10-5 10-7 7h-2l2 6 9 5 4 5 1 3v9l-4 6-2 2 1 7 1 5h10l10 3 8 5 2-4 3-3v-7l4-5 2-1 9-1 1-2-11-1-9-4-8-7-6-12-1-4v-9l3-10 6-9 7-5-1-5-2-6-4 1h-9l-8-4-5-6-3-6v-12l5-9 6-5 7-2h8l3-11 1-6h-7l-6-4-2-5 1-7 5-5h9l4 3h2l3-10-6 2h-9l-5-3-4-5-2-5 2-9 5-5 6-3 9 1 8 7 1 2 1-3-5-5-8-7-6-11-1-4v-11l4-10 6-8 8-6 7-3 9-1 10 2 5 2 1-4 3-5-1-4-3-6 1-9 4-6 4-3 9-1 2 1 2-10-5-8-1-9 3-10 5-6 8-4h12l7 3 7 8 2 4v13l-5 9-6 4 1 11 2 6 8 2 7 4 6 9 1 3v10l-4 8-5 5-6 3-8 1-9-2-5-3-3-3-6 2-11 5h-2l2 5v13l-4 10-2 3 1 4 8 8 5 6h4l-3-9v-11l5-9 5-4 7-3h10l7 3 5 4 5 10v7l9 3h4l3-5v-10l-1-8-5-3-5-6-2-9 3-8 7-6 3-1h8l8 5 4 6 1 4 2 1 2-5 9-13 7-11-3-2-10 4-13 1-9-2-10-6-6-8-4-9v-15l4-9 6-8 5-4 3-2-2-12h-8l-8-6-3-6v-7l4-6 5-4 2-1h9l7 4 4 8-1 8-4 6-1 3 3 11 4-1h7l10 3 8 5 4 3 8-7 17-13 3-1-2-13-9-3-5-6-1-2v-9l3-6 5-4 2-1h10l6 4 4 8v7l-4 6-3 3v9l11-7 3-3-1-5-3-10v-7l3-11 6-9 8-6 11-4h10l12 4 10 9 5 8 11-2 1-7 6-7 2-1h12l8 7 1 3v8l-4 7-6 4h-10l-6-4-3-3-11 1v11l-1 5 6 1 24 10 7 1 4-6 8-5 10-1 2-14-7-5-4-6-2-7 1-10 4-7 7-6zm-69 62v4l15 14 11 9 16 15 6 5h2l1-9-10-9-2-4-1-10-9-4-27-11zm131 8-5 8-8 4 1 19 1 7 19 10 29 15 22 12 4-1 5-4 5-2h10l10 4 5 7 2 5h17l-2-9-4-15-1-1-16-1-10-4-7-6-6-12-1-16-5-2-5 1-2 8 1 5 6 7 1 8-2 5-5 5-4 2h-7l-8-5-3-7 1-8 3-4v-2l10-3 2-1 1-14-27-8-23-7zm-185 1-9 7-7 6 2 13 4-2 7-11 7-10-1-3zm49-1-11 7-8 2h-11l-10-3-13 18-7 11-1 4 6 31 3 16 2 3 10 5 3 6v11l-6 7-4 2h-11l-6-3-3-5-1-9 3-8 5-4 2-1v-9l-7-36-5 4-12 17-7 10-5 8 1 4 9 10 15 16 7 8 16 17 8 9 6 1h5l4 5-1 6-3 3h-6l-4-1-15 10-2 3 1 1 28 3 5 1 5-6 5-3 8-1 7 3 5 5 2 8-2 8-5 5-5 3-9-1-7-4-6-12-5 1-3 7-4 3h-8l-5-4-1-9-4-2-10-1-7 4-15 11-19 13-8 5 5 15v14l-6 12-9 8-9 3h-15l-10-4-5-4-4 1-15 15-7 8-7 7-8 7-7 7 1 3h2l2 4 3 3 5-1 8-3h8l11 4 7 8 3 7 1 11 4 3 21 7 8-5h7v-3l-24-28-9-11-1-1h-15l-7-4-3-7v-8l4-8 5-3 6-1 9 2 5 5 2 5v8l-2 4 1 4 11 13 9 10 8 10 9 11 8 10 3 1 1-3-7-33-1-2-12-3-6-4-4-6-2-6v-8l4-8 1-3 4-2 5-3 4-1h7l8 3 5 4 4 7 1 4v7l-3 8-5 6-5 5 7 34 1 2 9 3 5 6 1 3v9l-4 7-5 3-9 3-4 13-6 15 1 5 4 5 7 1 11-2 4-1 9 5 8 2 7 4 4-1 4-4h7l3 3 1 9 5 1 4-4 7-2 8 1 6 4 3 5v12l-4 6-5 3h-11l-7-4-3-5-1-10-24-10-10-2-3-3-12-2h-9l-7 1-2 8-7 7 1 9 4 16 5 1 10 3 6 4 6 10 2 5 25-1-4-6-1-6 3-6 6-3 8 2 3 6v6l-3 5 1 2 9-1 1-9 1-2 8-1 3 1 3 10h10l-1-13 5-5 6-1 5 3 3 3v8l-1 4h21l24-1 1-1 1-7 5-5 10 1 3 3 2 8 23-1 3-1 9-22v-5l-8-1-5 7v2l-4 2-3 1h-12l-8-7-2-8 3-9 6-5 3-1h9l6 3 4 5 3 5h4l5-9 8-3 8-12 5-8v-2h11l2 5-1 5-4 4h-8l-8 10v2l4 1 19-3 5-2 3-5 7-18 3-7 6-3h9l8-4 6-6h8l5 5 4 5 6 1 7-9 4-2h10l6 3 5 7v10l-3 4v3l21-3 2-1 2-13 5-10 10-9v-1l-7-2-3-6 1-7 1-3-6-15-6-12-3-3-9-5-6-3-9-3-7-6-5-5-17-12-3-2-11 1-6-4-2-3 1-7 5-5h8l7 7 22-1-1-4-8-7-5-5h-7l-7-4-1-9-1-4-5-4-4 1-9 8 1 13-4 8-4 3-3 1h-10l-6-4-4-6v-11l3-5 4-3 5-2 1-2 3-22v-6l-17-17-8-7-10-10-9-2-3-5-3-7-5-5-10-9-7-7-8-7-11-11-13-3-7-6-2-4v-8l4-8v-2l-5-1h-8l-7 14-6 5-9 3h-9l-10-4-5 2-11 10-1 9-5 5h-9l-4-4-1-8 2-5 8-2 6 1 11-9 3-5-4-9-1-7 4-13 5-6-2-9-5-14-11-1-8-4-6-7-2-8 1-10 4-6v-2l4-2 8-3h9l8 3 6 7 2 4v13l-4 8-5 4-1 3 7 20 7-1h9l6 1 2-5-1-6-2-2-1-4v-8l4-6 6-4-1-3-8-7-13-12-8-7-10-9-8-7zm-72 19-17 13-9 7 3 9v17l-5 10-1 5h3l9-13 11-16 8-11 3-3-1-9-2-9zm154 4-5 4-7 3-7 1-2 5-1 9 14 13 11 9h3l5-7 6-2 7 3 3 3 1 9 9 3h4l-1-14-2-19-5-4-31-16zm44 23 2 28 2 5 19 5 4-1 7-6 3-1h8l6 3 4 5 3 4 8-1 1-6-9-6-24-12-4 5-5 2-6-2-1-8 2-5-16-8zm-329 9-2 4 1 7 2 3 1 7-3 8-4 3-12 2-7 10 2 4 6 7 6-2 12-6 1-3v-11l5-10 9-5-1-9-3-8h-7zm269 13-4 4-13 3-3 6 2 4 6 8 3 9 54 3h6l-1-3-8-7-15-13-7-7-10-5-6-2zm35 10-1 2 5 5 12 11 7 6h1l-1-18-5-3-14-3zm29 7 1 18h8l9 3 6 9v9l-1 4 10 8 6 4 4 1 7-7 9-5 13-1 4-15-1-5-8-6-5-9-2-1-7 2-4 8-5 4-11 1-6-3-4-5-2-4-1-6-16-4zm-230 7-10 14-22 32-4 5v2h16l10 5 7 10 1-3 1-7 5-7 7-3 9 1 5 3 3 3 2 6-1 8-4 7-4 4 1 1 14 1 11-8 14-10-4-6h-2l-2-4-7-7-7-8-16-17-6-7-3-1-3 6-5 2-6-3-2-3 1-5 8-5-2-4-2-2zm195 18 2 7v9l-4 7v3l10 10h2v2l8 7 8 8 1-3-1-6 3-6 3-3 1-13-4-5-1-4v-8l1-3-1-1zm-233 21-1 2 2 3 2-4zm285 2-4 2h-8l-2 5v5l7 5 1 8-2 5-8 3-1 10h3l2-3 9-1 6 1 21-9 1-3-1-3v-10l-17-12zm-375 20-6 4 1 9 1 3 3 1 3-2h6l3 1 2 7 4-2 2-4-15-16zm-25 6-4 10-16 56 1 4 5-1 19-19 16-14 1-4-9-32zm89 1-3 5-8 5-3 1h-9l-10-3-3 2 2 4 7 7h12l6 3 5 8 3-3 10-17 3-5v-6l-4-1zm62 2m323 0-7 10-8 5-3 1-11 1-2 6-5 39 15 15h2l2 4 3-1 5-5 15-14 11-9 10-10 8-7 6-5-1-3-7-3-2-4v-6l4-6 2-2-12-2-1 3v6l-3 3-4 1-6-3-1-7 2-5zm-99 1m-223 1 1 5 4 1-1-4zm224 0m48 5-18 8-3 9 1 5 9 9 8 7 12 12 4-26 1-16-9-8zm98 1 3 9 2 2 1-3-2-8zm-475 6-18 18 1 7 2 1 2-1h9l4 3 1 10-4 5-8 2 3 11 5 20 1 2 4-1 8-13 13-21 4-7-1-3-9-1-5-3-2-3-1-7 2-10-7-8zm104 0-6 12-11 6-4 1h-8l-10-4-5-5-4-8h-2l-15 24-10 17-13 22-8 13-2 5 1 2v7l-4 5-7 1-6 2-10 9 6 7 8 6 9-8 5-6 8-7 14-14 4-5 6-5-1-6-2-6v-16l5-10 4-5 10-6 6-2h13l11 4 4 3 5-2 16-11 18-13 4-4-12-2-8-1zm404 3-8 7-5 1-18 90v4l7 4 4-1 12-11 10-9 11-9 17-16 11-9 14-13 8-7 1-1-1-10-2-2-21-6-35-11zm-529 3 1 5h2l1-4zm507 2-11 9-12 11-8 7-12 11-11 10-8 7-8 8 2 4 3 3h10l5 3 2 9-1 2 6 8 7 7 7-1 10-2 4-1 8-38 9-45 1-10-1-2zm-510 16-16 15-19 19 3 10-1 11-5 8-2 1 1 6 3 6 12-1 10 2 12 6 15-14-1-8 4-5-1-8-14-48zm414 33-2 14v9l6 2 9-7 2-4-13-14zm123 36-5 5-10 9-5 4v2l9 7 10 9 5-1 6-5-6-7-3-6v-17zm-86 27 1 3 9 6 5 3 1-12zm-445 1v7l1 4 4-2 2-4-6-5zm510 0 1 11v4l6 3 4-1 5-5-7-7-6-5zm-498 11-8 6 4 4 10 3 2-1-1-5-6-7zm516 7-2 3 9 3 2-3-4-3zm-19 3-5 5-2 3 4-2 5-3-1-3zm-511 3-7 9-11 9-9 8-3 9-9 4-6 6 1 5 3 6 1 5v12l-3 9-3 5 1 4 11 12 7 8 11 12 10 11 9 11 3 1 5-12 4-4-2-9-5-10-5-3-1-2v-7l5-3 5-2 11-21-2-5-3-5v-11l4-6 8-4 10 1 5 3 4 8v7l-4 8-6 4-10 1-8 14-5 11-1 13 5 15 9 3 6 4 3 5 1 6-3 9-8 6-9 1 4 6 6 6 9-3 9-2 2-3 1-22-2-9 3-6v-6l-10-6-6-8-1-3v-11l4-8 6-5 5-2h13l6 3 6 7 4 10 6 2 13 1 3-5 8-4 8-1 3-9 8-20-1-4-5-5-4-12-2-1h-6l-6 1-6-4-3-5-19-7-9-2-5 7-10 5-12 1-9-3-8-7-4-11v-10l-9-4zm520 2-11 7-4 4 6 5 18 10 5 2-1-15 1-9-9-4zm-8 24 2 6 5 12 9 3 3 5v6l-2 5h12l11 3 9 6 6 9 3 13-2 12-5 10-7 6-9 4-5 2 4 4 14 8 12 6h4l4-5 5-3h8l6 2 15-14 10-9-1-12 1-7-3-3h-2v-2l-7-5-10 4h-9l-7-3-5-4-4-8v-11l1-3-8-5-28-16-24-14zm-397 3 1 6 4 2 2-3-3-1-2-4zm306 59-2 2-2 9-4 5-8 1h-5l-4 10v2l9-1 52-9 4-2-6-8-3-6-9-1-6 4h-6l-8-6zm81 16-20 4-64 11-24 4 3 6v9l-3 1h-10l-1-7 1-6h-7l-13 3-4 8-9 4-7 18v2h7l24-4 4-6 6-4 6-1 9 3 4 3 6-1 1-1 2-11 4-8 7-6 9-3h8l9 3 8 7 4 9v12l-6 12-8 5-6 2-8 1 4 7 8 12 4-2 9-10 7-8 8-9 4-8 13-12 2-5-5-3-3-6v-9l4-7 6-3h8l6 4 2 1-2-5-4-6zm-425 2-3 4 1 6 13 12h3l7-1h3l2 5 1 4-2 2 1 4 10 10h5l1-1-1-10-4-15-9-3-7-6-3-9zm-11 12-10 4 1 5 5 5v7l-7 6v23l14 7 8 9 2 3 6-1 17-5 1-5 2-11 4-7-1-4-10-9-9-7-7-8-7-7h-2l-2-4zm449 5-6 12-10 7-5 5-1 3 8 6 4 1 8-14 9-14-1-4zm28 15 1 25 1 2 9-2h13l8 1 1-6-2-5-22-11-7-4zm-70 33-9 11-3 3v2l18 1 7 1 4-6v-3l-9-3-4-4-1-2zm-188 0-131 5-4 12-2 3 1 5 9 10 3 3-1-11 3-7 5-5 2-1h11l6 4 4 6v11l-4 6-8 4h-7l-7-2 4 6 18 22 10 12 4 5 9 2 4 3 5-1 8-5 2-5 6-32-1-5-6-5-2-4v-11l4-6 6-4h10l7 4 3 6 1 7-3 8-6 5-7 2-7 34v2l5-2 25-14 5-3-1-9 1-10 5-8v-2l12-6 8-1 9 2 4 1 11-16-1-4-1-1v-6l1-4h-12l-4 2-6-2zm-183 15-21 7v12l-3 10v4l16 13 5 2 1-1v-10l2-5 7-5 5-12-1-5-8-10zm40 11-9 3h-13l-5 11 1 5 4 7-2 8-5 3-8 1-2 3 11 10 4-1 14-12 1-4 1-7 2-4 5-2 7 1 4 5v8l-5 5-10 1-13 12-2 1 1 4 5 1 4-3 8-2 11 1 8 5 4 7 2 7 2 1 18 1 6-9 2-2-1-5-9-11-10-12-11-14-11-13-8-10zm19 12v2l2-1zm3 4m271 11-3 6 1 5 3 11 5-3 2-4-4-8-3-7zm-335 21-7 15 2 4 4 1 12-11-6-7zm346 0-21 21 1 2h5l4-4v-2l4-2 8-3h8l9 4 6 7 3 10 2 1h13l6-11-11-15-2-2h-17l-9-3-5-3zm-28 27-15 14-10 9v2h18l7-2 12-7-1-14-6-2zm14 22-4 2v1h9v-3zm-48 9-7 8-8 7-3 4 5-1 22-12 7-4v-2z" fill="#1A698B"/>
<path transform="translate(1827,417)" d="m0 0h23l17 4 12 5 11 7 8 8 8 13 6 17 2 9 1 9v28l-2 14-5 17-7 13-10 13-12 9-12 5-10 2h-20l-15-4-11-7-7-7-2-3-1 86-4 8-5 5-3 2-17 2h-12l-1-1-1-15v-156l1-25 2-10 5-13 6-10 8-7 14-8 12-5zm4 37-11 4-8 6-6 10-3 8-2 14v17l3 16 6 11 8 8 12 5h13l10-4 8-7 5-8 4-10 2-12v-13l-2-16-5-12-6-8-8-6-10-3z" fill="#1A698B"/>
<path transform="translate(1030,372)" d="m0 0h88l26 1v35l-1 1h-111v47l21-1h62l1 1v14l-2 8-3 6-8 7-3 1h-68v94l-1 1h-42l-1-1v-198l6-10 7-5z" fill="#1B698B"/>
<path transform="translate(1192,417)" d="m0 0h28l17 3 12 4 9 5 9 8 6 10 2 8v79l-2 12-5 11-7 11-7 7-10 6-13 5-14 3-11 1h-25l-14-3-14-7-9-8-6-11-3-10v-26l3-10 6-10 8-7 15-8 19-5 27-4 12-4 6-4 2-8-2-7-5-2-7-2-18-1-10 2-7 5-3 4h-42l1-9 5-11 6-8 9-8 12-6 14-4zm41 87-17 6-25 6-9 5-5 6-2 7v7l4 8 6 5 5 2h15l10-3 9-6 6-7 3-9 1-5v-22z" fill="#1A698B"/>
<path transform="translate(1559,417)" d="m0 0h22l14 3 14 5 10 7 9 8 7 10 8 19 4 19v31l-4 19-5 14-9 14-11 11-12 7-13 4-11 2h-24l-17-4-9-4-10-6-12-12-7-11-5-15-3-14-1-8v-26l5-25 7-16 9-11 10-9 16-8 11-3zm8 37-12 4-8 6-5 8-5 15v30l4 16 5 10 4 5 12 6 12 1 10-3 8-6 7-10 4-13 2-14v-13l-2-13-4-11-6-8-7-6-11-4z" fill="#1A698B"/>
<path transform="translate(1402,417)" d="m0 0h22l14 3 14 5 11 7 11 11 9 16 4 12-2 1h-42l-4-5-7-8-10-4h-16l-9 4-8 7-4 8-3 11-1 8v21l3 16 6 12 8 7 7 3 6 1h10l10-3 6-4 4-2 2-4 5-4 6-1h33l1 3-6 16-8 11-11 11-12 7-14 5-13 2h-23l-18-4-12-6-11-9-9-11-8-16-4-15-2-18v-15l2-20 6-18 7-13 9-10 10-8 16-7z" fill="#1A698B"/>
<path transform="translate(1288,372)" d="m0 0h13l16 1 8 5 4 6 1 3v200h-43l-1-5v-209z" fill="#1A698B"/>
<path transform="translate(1736,421)" d="m0 0h15v44l-4 1h-11l-15 2-9 5-5 6-4 10-1 10-1 88h-44l-1-31v-58l3-18 6-17 6-11 8-10 14-10 11-5 14-4z" fill="#1B6A8B"/>
<path transform="translate(480,518)" d="m0 0h93v24h-74v31h54v16l-5 6-5 1h-45l1 63-1 1h-27v-132l4-6z" fill="#1A698B"/>
<path transform="translate(236,743)" d="m0 0 11 2 9 8 4 10-1 9-5 9-9 6-4 1h-7l-9-3-7-7-3-8v-9l5-10 8-6z" fill="#1B698B"/>
<path transform="translate(650,630)" d="m0 0 8 1 6 4 4 8v8l-4 8-6 4-7 1-8-2-5-5-3-6v-8l3-6 6-5z" fill="#1A698B"/>
<path transform="translate(577,440)" d="m0 0h9l7 4 5 7 1 3v7l-5 8-4 3-3 1h-11l-7-5-4-8 1-9 7-8z" fill="#1B6A8B"/>
<path transform="translate(694,451)" d="m0 0h9l6 3 5 6 1 2v11l-4 6-5 4-3 1h-8l-5-2-7-8-1-10 4-8z" fill="#1B698B"/>
<path transform="translate(720,609)" d="m0 0h11l7 4 3 4 1 3v10l-4 7-4 3-5 2-9-1-6-4-4-6-1-7 3-9 6-5z" fill="#1A698B"/>
<path transform="translate(725,503)" d="m0 0 10 2 6 5 2 5v9l-3 6-6 5-3 1h-8l-7-3-5-6-1-11 3-6 7-6z" fill="#1A698B"/>
<path transform="translate(600,774)" d="m0 0h9l6 3 5 6 1 3v9l-5 8-7 3h-11l-6-4-4-8v-8l6-9z" fill="#1A698B"/>
<path transform="translate(363,892)" d="m0 0h11l6 4 3 5 1 8-3 7-4 4-6 2-9-1-6-5-3-7 1-8 5-7z" fill="#1B6A8B"/>
<path transform="translate(761,310)" d="m0 0h10l6 4 3 4 1 10-4 8-5 3-7 1-8-2-5-6-2-5 1-8 4-6z" fill="#1B6A8B"/>
<path transform="translate(531,928)" d="m0 0 9 1 6 5 3 7-1 7-4 6-5 4h-11l-5-3-4-5-1-9 3-7 5-4z" fill="#1B6A8B"/>
<path transform="translate(768,498)" d="m0 0 10 1 6 5 2 5v9l-4 6-6 4h-9l-6-3-4-5-1-10 3-7 6-4z" fill="#1B698B"/>
<path transform="translate(239,498)" d="m0 0 8 1 6 4 3 6v10l-7 8-2 1h-11l-6-4-3-3-1-3v-8l3-6 5-4z" fill="#1A698B"/>
<path transform="translate(445,323)" d="m0 0h8l6 3 5 8v8l-5 8-6 3h-8l-8-5-3-5v-10l3-5z" fill="#1A698B"/>
<path transform="translate(272,831)" d="m0 0h8l7 4 4 6v10l-3 5-6 4-9 1-8-4-4-8 1-9 4-6z" fill="#1A698B"/>
<path transform="translate(778,817)" d="m0 0h10l8 7 2 4v7l-5 8-4 3-3 1h-7l-7-4-3-3-1-3v-10l4-6z" fill="#1A698B"/>
<path transform="translate(239,638)" d="m0 0h11l5 3 5 6v9l-3 6-5 4-7 2-9-3-5-6-1-2v-9l3-5z" fill="#1A698B"/>
<path transform="translate(537,630)" d="m0 0h7l5 3 5 6 1 8-3 7-6 5-3 1h-7l-6-4-4-5-1-2v-8l4-6 5-4z" fill="#B37A1B"/>
<path transform="translate(1268,639)" d="m0 0 6 1 3-1h10l4 3h2v-2l2-1h11l4 4 1 2 1 24-5 1-1-1-1-22-2-3h-7l-3 4-1 21-5 1-1-1v-21l-2-4h-7l-3 1-1 25h-5l-1-1v-29z" fill="#B57D20"/>
<path transform="translate(1061,639)" d="m0 0h21l-4 16-3 3-6 2h-6l1 5h12l5 3 1 1v8l-4 5-4 1h-14l-5-3-1-2v-6l3-5 1-10-2-4v-7l4-6zm2 4-2 4 1 7 2 1h7l3-3v-6l-2-3zm0 26-4 2v6l2 2h12l4-4-1-5-3-1z" fill="#B47B1C"/>
<path transform="translate(1547,638)" d="m0 0 6 2 5 1 3-2h10l5 5 1 5v16l-1 5h-4l-1-3v-18l-3-5-4-1-4 2-2 5-1 20h-5l-1-24-2-2h-6l-4 4-1 6-1 16-5-1v-28l1-2 7 1z" fill="#B57D20"/>
<path transform="translate(1428,638)" d="m0 0 4 2 5 16 2 5 5-20 3-3h3l-1 8-6 21-2 3-5-1-3-7-4-14-7 20-2 2-5-1-5-16-3-14h5l3 9 3 12 2-3 6-17z" fill="#B47C1E"/>
<path transform="translate(988,630)" d="m0 0h21l6 4 4 5 1 3v15l-3 6-6 5-9 2h-14zm5 4v31l1 1 11-1 5-3 4-5 1-11-2-6-5-5-3-1z" fill="#B47B1C"/>
<path transform="translate(1328,639)" d="m0 0 7 1 1-1h11l5 4 3 7v9l-3 7-5 4h-11l-4-2 1 3v11l-5 1-1-43zm9 4-4 6v11l3 5 2 1h7l4-6v-11l-3-5-2-1z" fill="#B47B1C"/>
<path transform="translate(1229,630)" d="m0 0h23v4h-17v12h15l2 4-1 1-16 1 1 13 16 1v4h-22l-1-1z" fill="#B67F23"/>
<path transform="translate(1600,639)" d="m0 0h10l5 4 2 4v8l-4 1h-17l4 8 2 1h9l5-1-1 5-1 1h-15l-6-5-2-4v-13l4-6zm1 4-5 6 1 2 11 1 4-1-2-6-3-2z" fill="#B67E22"/>
<path transform="translate(1376,639)" d="m0 0h12l6 5 3 7v8l-4 8-5 3-8 1-7-3-4-5-1-2v-12l3-6zm2 4-4 5-1 10 3 6 2 2h8l4-4 1-3v-9l-3-5-3-2z" fill="#B47B1D"/>
<path transform="translate(1470,639)" d="m0 0h10l5 4 2 4v9h-21l4 8 2 1h10l4-1-1 5-1 1-9 1-8-2-5-6-1-3v-11l5-8zm1 4-4 4v4h15l-1-5-3-3z" fill="#B57E21"/>
<path transform="translate(1150,639)" d="m0 0h13l4 4 1 3v23h-4l-5 1h-12l-4-5v-7l4-5 9-2h7l-1-7h-11l-4 1 1-5zm4 16-5 3-1 5 2 3h9l3-3 1-8z" fill="#B47B1D"/>
<path transform="translate(1632,639)" d="m0 0 6 1 3-1h11l5 5 1 4v21l-5 1-1-4v-17l-2-5h-8l-3 3-1 5v17l-5 1-1-1z" fill="#B47B1D"/>
<path transform="translate(465,824)" d="m0 0h6l5 4 2 6-1 7-5 4-7 1-6-3-2-3v-9l5-6z" fill="#1A698B"/>
<path transform="translate(382,478)" d="m0 0 6 1 5 5 1 2v7l-3 5-4 2h-7l-6-4-2-7 3-7z" fill="#1B698B"/>
<path transform="translate(488,409)" d="m0 0h7l6 4 2 4-1 7-4 5-2 1h-9l-6-7v-7l5-6z" fill="#1A698B"/>
<path transform="translate(140,609)" d="m0 0 6 1 5 4 2 7-3 7-7 3-7-1-4-5-1-8 4-6z" fill="#1B6A8B"/>
<path transform="translate(665,610)" d="m0 0h8l5 4 1 2v8l-5 6-9 1-5-3-2-4v-8l4-5z" fill="#1A698B"/>
<path transform="translate(482,196)" d="m0 0 9 1 5 6v8l-5 5-3 2-7-1-5-5-1-2 1-9z" fill="#1A698B"/>
<path transform="translate(812,821)" d="m0 0h6l7 6v9l-4 5-2 1h-9l-5-5-1-2v-7l4-5z" fill="#1A698B"/>
<path transform="translate(766,281)" d="m0 0 6 1 5 5 1 2v6l-4 6-7 2-7-2-3-5v-8l5-6z" fill="#1A698B"/>
<path transform="translate(422,713)" d="m0 0 8 1 5 6v9l-5 5-9 1-5-5-2-4 1-6 5-6z" fill="#1B698B"/>
<path transform="translate(313,638)" d="m0 0 9 1 4 4 1 8-3 5-6 4-8-2-4-6v-8l5-5z" fill="#1A698B"/>
<path transform="translate(760,777)" d="m0 0 7 1 6 5v9l-5 5-2 1h-8l-5-5-1-2v-7l4-5z" fill="#1A698B"/>
<path transform="translate(843,698)" d="m0 0 7 1 6 5 1 6-4 6-4 3h-8l-5-5-1-2v-7l5-6z" fill="#1B6A8B"/>
<path transform="translate(381,507)" d="m0 0 7 1 5 4 1 2v7l-3 5-3 2h-8l-6-4-1-2v-8l4-5z" fill="#1B698B"/>
<path transform="translate(778,467)" d="m0 0 9 1 4 5 1 7-3 6-4 2h-8l-5-5-1-2v-7l3-5z" fill="#1A698B"/>
<path transform="translate(552,423)" d="m0 0h7l5 3 3 3 1 6-5 7-3 2h-6l-6-4-2-3v-8l5-5z" fill="#1B698B"/>
<path transform="translate(273,866)" d="m0 0h6l7 6 1 8-5 6-2 1h-8l-5-4-2-5 1-5 5-6z" fill="#1B6A8B"/>
<path transform="translate(660,792)" d="m0 0 7 1 5 4 1 8-4 7-2 1h-9l-5-4-1-3v-7l5-6z" fill="#1A698B"/>
<path transform="translate(393,656)" d="m0 0 6 1 5 5 1 2-1 9-5 4-6 1-6-3-3-5v-6l4-6z" fill="#1A698B"/>
<path transform="translate(394,900)" d="m0 0h8l6 5 1 2v6l-6 7-7 1-6-3-2-3v-10z" fill="#1B6A8B"/>
<path transform="translate(459,366)" d="m0 0h7l5 3 2 4v7l-3 5-9 2-6-3-3-5v-6l5-6z" fill="#1B6A8B"/>
<path transform="translate(897,541)" d="m0 0h6l6 4 2 4v6l-5 6-2 1h-7l-5-3-2-4v-7l5-6z" fill="#1A698B"/>
<path transform="translate(628,483)" d="m0 0 7 1 5 5 1 6-3 6-5 3h-6l-6-4-2-5 1-5 5-6z" fill="#1A698B"/>
<path transform="translate(553,955)" d="m0 0h8l7 6v8l-4 5-2 1h-10l-5-6v-7z" fill="#1A698B"/>
<path transform="translate(155,459)" d="m0 0h7l5 3 3 5v5l-5 6-2 1h-9l-5-5-1-6 2-5z" fill="#1A698B"/>
<path transform="translate(1676,633)" d="m0 0h3l1 5 8 1 1 4h-10l1 18 1 4 8 1v4h-11l-3-3-1-14v-10l-4-1v-2l5-1v-5z" fill="#B57E21"/>
<path transform="translate(1121,632)" d="m0 0 2 1v6h8v4h-8l1 21 8 3v3h-10l-3-3-1-2-1-21-3-1v-3l5-1v-5z" fill="#B37919"/>
<path transform="translate(1184,627)" d="m0 0h6v42l-5 1z" fill="#B57D20"/>
<path transform="translate(354,648)" d="m0 0 7 1 4 5-2 8-4 3h-5l-5-4-1-2v-6z" fill="#1C6A8C"/>
<path transform="translate(852,683)" d="m0 0h8l4 4 1 6-5 6h-7l-5-5v-6z" fill="#1C6A8C"/>
<path transform="translate(1502,639)" d="m0 0h3l1 2 5-1 1-1h8v3l-9 4-3 3-1 21h-5z" fill="#B47A1C"/>
<path transform="translate(436,477)" d="m0 0h7l4 4 1 4-4 7-7 1-5-3-1-2v-6z" fill="#1A698B"/>
<path transform="translate(505,704)" d="m0 0 6 1 4 5v6l-6 5-6-1-4-4-1-4 3-6z" fill="#1A698B"/>
<path transform="translate(852,557)" d="m0 0h6l5 5-1 8-4 3h-6l-4-2-1-2v-8z" fill="#1A698B"/>
<path transform="translate(376,261)" d="m0 0 6 1 4 4v6l-4 5-5 1-6-3-1-2v-7l4-4z" fill="#1A698B"/>
<path transform="translate(486,714)" d="m0 0 6 1 5 6-1 5-6 5-6-1-4-5 1-7z" fill="#1B698B"/>
<path transform="translate(657,563)" d="m0 0 6 1 4 5-1 7-5 4h-5l-5-6v-6l4-4z" fill="#1B698B"/>
<path transform="translate(441,290)" d="m0 0 5 1 4 4 1 4-4 7-6 1-5-3-2-4 1-6z" fill="#1A698B"/>
<path transform="translate(225,333)" d="m0 0 6 1 4 5-1 6-4 4h-7l-5-6 1-6 3-3z" fill="#1A698B"/>
<path transform="translate(419,656)" d="m0 0h5l5 5 1 6-4 5-5 1-6-3-1-2v-7z" fill="#1A698B"/>
<path transform="translate(529,401)" d="m0 0 6 1 4 4v6l-5 5h-6l-5-4v-7l4-4z" fill="#1B698B"/>
<path transform="translate(599,678)" d="m0 0h7l5 5v6l-4 4-6 1-5-4-1-7z" fill="#1A698B"/>
<path transform="translate(694,589)" d="m0 0h9l4 5-1 7-4 3h-7l-4-5-1-5z" fill="#1A698B"/>
<path transform="translate(442,810)" d="m0 0h6l5 4v7l-4 4-5 1-6-3-2-7 5-5z" fill="#1B698B"/>
<path transform="translate(629,511)" d="m0 0h6l5 5v6l-5 5h-6l-4-4-1-6 3-5z" fill="#1C6A8C"/>
<path transform="translate(402,492)" d="m0 0h7l5 4 1 5-6 7-7-1-4-6 1-6z" fill="#1A698B"/>
<path transform="translate(738,481)" d="m0 0 7 1 3 4v6l-5 5-7-1-4-4v-6z" fill="#1A698B"/>
<path transform="translate(635,663)" d="m0 0 7 2 2 2v8l-4 4h-7l-4-3-1-6 3-5z" fill="#1A698B"/>
<path transform="translate(414,913)" d="m0 0 6 1 3 4 1 4-2 5-4 3-6-1-4-5-1-3 4-6z" fill="#1B698B"/>
<path transform="translate(223,672)" d="m0 0h6l4 2 1 2v8l-4 3h-8l-4-5 1-7z" fill="#1A698B"/>
<path transform="translate(604,462)" d="m0 0h5l5 4 1 6-5 6h-6l-5-5-1-4 3-5z" fill="#1A698B"/>
<path transform="translate(622,291)" d="m0 0 7 1 4 5-1 5-4 5h-7l-3-3-1-2v-6z" fill="#1A698B"/>
<path transform="translate(627,815)" d="m0 0h6l5 4v7l-6 5-5-1-5-5 1-6z" fill="#1B698B"/>
<path transform="translate(664,774)" d="m0 0h7l5 5 1 4-5 6-6 1-4-2-1-2v-8z" fill="#1A698B"/>
<path transform="translate(684,640)" d="m0 0h7l5 5v6l-4 4h-8l-4-5 1-7z" fill="#1A698B"/>
<path transform="translate(540,719)" d="m0 0h6l4 4 1 5-3 5-4 2-5-1-4-5v-6z" fill="#1A698B"/>
<path transform="translate(526,426)" d="m0 0h8l5 5v5l-5 5h-6l-5-4v-7z" fill="#1A698B"/>
<path transform="translate(805,455)" d="m0 0 7 2 3 5-3 7-3 2-7-1-3-3-1-4 3-6z" fill="#1A698B"/>
<path transform="translate(1036,639)" d="m0 0h5v31h-5z" fill="#B37919"/>
<path transform="translate(1097,639)" d="m0 0h4v31l-5-1v-29z" fill="#B37919"/>
<path transform="translate(407,473)" d="m0 0h5l3 3-1 5-2 2h-5l-3-3v-5z" fill="#1A698B"/>
<path transform="translate(349,668)" d="m0 0 7 1 1 1v6l-3 2-6-1-1-1 1-7z" fill="#1C6A8C"/>
<path transform="translate(703,637)" d="m0 0h5l3 3-1 5-3 2-5-1-2-5z" fill="#1A698B"/>
<path transform="translate(673,579)" d="m0 0h5l3 4-2 5-5 1-4-4 1-4h2z" fill="#1A698B"/>
<path transform="translate(393,600)" d="m0 0 6 2 1 5-4 4-4-1-2-2v-5z" fill="#1A698B"/>
<path transform="translate(459,778)" d="m0 0 5 2v6l-3 3-5-2-2-3 1-4z" fill="#1A698B"/>
<path transform="translate(611,663)" d="m0 0 6 2v6l-2 2h-6l-2-2 1-6z" fill="#1C6A8C"/>
<path transform="translate(402,610)" d="m0 0 6 1 1 5-3 4-6-1-2-4 2-4z" fill="#1A698B"/>
<path transform="translate(454,473)" d="m0 0 6 1 2 2-1 4-4 4-5-3v-6z" fill="#1A698B"/>
<path transform="translate(375,385)" d="m0 0 5 2 1 1v6l-2 2h-5l-2-2 1-7z" fill="#1A698B"/>
<path transform="translate(506,731)" d="m0 0 6 1 2 2-1 5-3 2-5-1-1-7z" fill="#1A698B"/>
<path transform="translate(449,683)" d="m0 0 5 1 2 2-1 6-7 1-2-2 1-6z" fill="#1A698B"/>
<path transform="translate(337,676)" d="m0 0 5 2 2 4-5 5-4-1-1-7z" fill="#1A698B"/>
<path transform="translate(358,268)" d="m0 0h5l2 2v5l-4 3-5-2-1-5z" fill="#1A698B"/>
<path transform="translate(489,464)" d="m0 0 5 1 1 1-1 7-4 1-5-3 1-5z" fill="#1A698B"/>
<path transform="translate(617,763)" d="m0 0 7 1 1 3-3 5-4 1-4-5z" fill="#1A698B"/>
<path transform="translate(520,734)" d="m0 0h6l3 4-3 5-7-1-1-4z" fill="#1A698B"/>
<path transform="translate(659,584)" d="m0 0h5l2 2v5l-3 3-5-1-1-1v-6z" fill="#1D6A8C"/>
<path transform="translate(398,580)" d="m0 0 5 1 2 4-1 3-6 2-4-4 2-5z" fill="#1A698B"/>
<path transform="translate(247,615)" d="m0 0h5l3 3-1 5-1 1h-6l-2-2v-5z" fill="#1A698B"/>
<path transform="translate(420,481)" d="m0 0h6l1 2v6l-2 2-5-1-2-2 1-6z" fill="#1D6B8C"/>
<path transform="translate(322,727)" d="m0 0h6l3 3-1 4-5 3-4-4v-5z" fill="#1D6B8C"/>
<path transform="translate(400,527)" d="m0 0h7l2 2-1 5-2 2-6-1-1-6z" fill="#1A698B"/>
<path transform="translate(420,677)" d="m0 0h5l1 1v6l-3 3-5-2-1-6z" fill="#1A698B"/>
<path transform="translate(541,450)" d="m0 0 5 2 1 5-4 3-5-2-1-5z" fill="#1A698B"/>
<path transform="translate(485,696)" d="m0 0h7l1 5-3 4-5-1-1-1v-6z" fill="#1A698B"/>
<path transform="translate(1036,629)" d="m0 0h5l1 4-1 1h-5l-1-4z" fill="#B37919"/>
<path transform="translate(1098,628)" d="m0 0 4 2-1 4-5-1v-4z" fill="#BA8630"/>
</svg>
