<svg width="107" height="27" viewBox="0 0 107 27" fill="none" xmlns="http://www.w3.org/2000/svg">
  <path d="M105.997 23.4382C105.997 24.7227 105 25.7313 103.702 25.7313C102.404 25.7313 101.393 24.7227 101.393 23.4382C101.393 22.1536 102.417 21.1729 103.702 21.1729C104.987 21.1729 105.997 22.1814 105.997 23.4382ZM101.967 23.4382C101.967 24.4467 102.705 25.2477 103.716 25.2477C104.727 25.2477 105.424 24.4467 105.424 23.4524C105.424 22.4581 104.7 21.6286 103.703 21.6286C102.707 21.6286 101.968 22.4439 101.968 23.4382H101.967ZM103.348 24.6264H102.828V22.3611C103.032 22.3197 103.32 22.2919 103.689 22.2919C104.113 22.2919 104.303 22.3611 104.468 22.4581C104.591 22.5544 104.686 22.7341 104.686 22.9553C104.686 23.2042 104.495 23.3975 104.223 23.4802V23.508C104.44 23.5901 104.564 23.7562 104.632 24.0601C104.7 24.4053 104.741 24.5437 104.796 24.6264H104.236C104.168 24.5437 104.126 24.3368 104.058 24.0737C104.017 23.8254 103.881 23.7149 103.593 23.7149H103.348V24.6271V24.6264ZM103.361 23.3418H103.606C103.893 23.3418 104.125 23.2455 104.125 23.0109C104.125 22.8033 103.976 22.6643 103.647 22.6643C103.511 22.6643 103.415 22.6785 103.361 22.6935V23.3418Z" fill=""/>
  <path d="M17.9482 0.512525C17.6268 0.195111 17.241 0.0336914 16.7787 0.0336914C16.3164 0.0336914 15.9192 0.195111 15.6099 0.512525C15.2999 0.829938 15.1482 1.23688 15.1482 1.72182V9.81993C13.5581 8.49127 11.723 7.82118 9.6356 7.82118C7.20939 7.82118 5.13476 8.70695 3.41575 10.4846C1.69673 12.2562 0.843262 14.3994 0.843262 16.9129C0.843262 19.4264 1.70277 21.5636 3.41575 23.3412C5.13476 25.1128 7.20402 26.0046 9.6356 26.0046C12.0672 26.0046 14.1136 25.1189 15.8554 23.3412C17.5745 21.5873 18.4279 19.4448 18.4279 16.9129V1.72182C18.4279 1.23688 18.2702 0.829938 17.9482 0.512525ZM14.7155 19.1036V19.1158C14.429 19.8042 14.0371 20.4085 13.5406 20.9233C13.0441 21.4442 12.459 21.8511 11.7927 22.1563C11.1204 22.4615 10.4072 22.6114 9.64163 22.6114C8.87606 22.6114 8.14538 22.4615 7.47307 22.1563C6.80076 21.8511 6.22172 21.4442 5.73125 20.9294C5.2401 20.4146 4.84893 19.8103 4.56242 19.1219C4.27592 18.4274 4.12965 17.6915 4.12965 16.9129C4.12965 16.1343 4.27592 15.3984 4.56242 14.7039C4.84893 14.0094 5.24077 13.4112 5.73125 12.8964C6.22239 12.3816 6.8068 11.9747 7.47307 11.6695C8.14538 11.3643 8.86466 11.2144 9.64163 11.2144C10.4186 11.2144 11.1204 11.3643 11.7927 11.6695C12.4651 11.9747 13.0441 12.3816 13.5406 12.9025C14.0371 13.4234 14.429 14.0277 14.7155 14.71C15.002 15.3984 15.1482 16.1289 15.1482 16.9068C15.1482 17.6847 15.002 18.4213 14.7155 19.1036Z" fill=""/>
  <path d="M90.5876 13.4235C90.1608 12.3457 89.5107 11.3704 88.6579 10.4962L88.6465 10.4901C86.91 8.71854 84.834 7.82666 82.4266 7.82666C80.0192 7.82666 77.9251 8.71243 76.2061 10.4901C74.4871 12.2616 73.6343 14.4049 73.6343 16.9184C73.6343 19.4319 74.4938 21.569 76.2061 23.3467C77.9251 25.1182 79.995 26.0101 82.4266 26.0101C84.6354 26.0101 86.547 25.2742 88.1728 23.8018C88.4874 23.4667 88.6465 23.0598 88.6465 22.5864C88.6465 22.113 88.4948 21.6945 88.1842 21.3771C87.8748 21.0597 87.483 20.8983 87.0153 20.8983C86.6067 20.9105 86.2437 21.0482 85.9344 21.3235C85.4433 21.7542 84.9112 22.0838 84.3328 22.2995C83.7538 22.5152 83.1224 22.623 82.4338 22.623C81.2282 22.623 80.1841 22.0142 79.4554 20.9186C78.7267 19.8229 78.0632 18.3703 77.7149 16.7502C77.6068 16.2816 77.556 15.7374 77.556 15.2573C77.556 14.7771 77.6068 14.2339 77.7149 13.7653C78.0632 12.1452 78.7267 10.6928 79.4554 9.59606C80.1841 8.50037 81.2282 7.89166 82.4338 7.89166C83.1224 7.89166 83.7538 7.99947 84.3328 8.21514C84.9112 8.43081 85.4433 8.76042 85.9344 9.1912C86.2437 9.46647 86.6067 9.60421 87.0153 9.61636C87.483 9.61636 87.8748 9.45594 88.1842 9.13856C88.4948 8.82118 88.6465 8.40268 88.6465 7.92932C88.6465 7.45597 88.4874 7.04811 88.1728 6.71299C86.547 5.23963 84.6354 4.50381 82.4266 4.50381C79.995 4.50381 77.9251 5.3957 76.2061 7.16822C74.4871 8.93976 73.6343 11.0831 73.6343 13.5966C73.6343 16.1101 74.4938 18.2472 76.2061 20.0249C77.9251 21.7964 79.995 22.6883 82.4266 22.6883C84.834 22.6883 86.91 21.7964 88.6465 20.0249C89.5107 19.1407 90.1608 18.1653 90.5876 17.0875L90.5892 17.0936L90.5876 17.0894C90.5889 17.0215 90.5876 16.9313 90.5876 16.8546C90.5876 16.7589 90.5882 16.6696 90.5892 16.6175C90.591 16.6075 90.591 16.5977 90.591 16.5901C90.5927 16.5835 90.5931 16.5753 90.5931 16.5661C90.5931 16.5569 90.5927 16.5483 90.5927 16.5421C90.5927 16.5371 90.5921 16.5353 90.5914 16.5313C90.5914 16.5282 90.5914 16.5253 90.5914 16.5235C90.5914 16.5224 90.5914 16.5213 90.5914 16.5203C90.5914 16.5192 90.5914 16.5182 90.5914 16.5175C90.5914 16.5171 90.5914 16.5169 90.5914 16.5167C90.5914 16.5167 90.5914 16.5167 90.5914 16.5166C90.5914 16.5166 90.5914 16.5166 90.5914 16.5166C90.5914 16.5166 90.5914 16.5166 90.5914 16.5166C90.5914 16.5166 90.5914 16.5166 90.5914 16.5166C90.5914 16.5166 90.5914 16.5166 90.5914 16.5166C90.5914 16.5166 90.5914 16.5166 90.5914 16.5166C90.5914 16.5166 90.5914 16.5166 90.5914 16.5166C90.5914 16.5166 90.5914 16.5166 90.5914 16.5166C90.5914 16.5166 90.5914 16.5166 90.5914 16.5166C90.5914 16.5166 90.5914 16.5166 90.5914 16.5166C90.5914 16.5166 90.5914 16.5166 90.5914 16.5166C90.5914 16.5166 90.5914 16.5166 90.5914 16.5166C90.5914 16.5166 90.5914 16.5166 90.5914 16.5166Z" fill=""/>
  <text x="15" y="24" fill="#000" font-family="Arial" font-size="12"></text>
</svg>
